<svg xmlns="http://www.w3.org/2000/svg" version="1.1" xmlns:xlink="http://www.w3.org/1999/xlink" xmlns:svgjs="http://svgjs.dev/svgjs" width="1000" height="1125" viewBox="0 0 1000 1125"><g transform="matrix(1,0,0,1,0.00014687500004129106,0)"><svg viewBox="0 0 320 360" data-background-color="#ffffff" preserveAspectRatio="xMidYMid meet" height="1125" width="1000" xmlns="http://www.w3.org/2000/svg" xmlns:xlink="http://www.w3.org/1999/xlink"><g id="tight-bounds" transform="matrix(1,0,0,1,0,0)"><svg viewBox="0 0 320 360" height="360" width="320"><rect width="320.000047" height="360" fill="url(#7fc597ce-efe2-42ba-bd41-c09dfa059b5e)" mask="url(#ba2d5e7c-40ae-4336-adfd-99aad0299970)" data-fill-palette-color="tertiary"></rect><g><svg></svg></g><g><svg viewBox="0 0 320 360" height="360" width="320"><g><path transform="translate(-74.99272,-51.79039) scale(4.65793,4.65793)" d="M20.6 59.9l0.8 1-0.4-1.3c-0.1-0.6-0.8 0.1-0.4 0.3M21.5 59.3c0.3 0.5 0.6 1 0.6 1.5 0 0.7 0.6 1 1.1 1.2-0.7-0.8-1.1-3-1.7-2.7M59.9 16.9c1.7 0 3.3-0.2 5.1 0.2 4.4 1.1 8.1 3.3 10.6 6.4l7 11.2c0.3 2.8 0.9 5.9 0.8 9.3 0.7 0 0.6-1 1.4-1.2-0.8 2-1.2 4.5-1.4 7.4-0.5-1.6 0-4 0.1-5.3-0.7 1.1-1.1 0.3-1.1-0.2 0.1-0.8-0.3-0.7-0.6-1-1.1-1-1.8-2.1-2.6-3.8 0.5-1.3 0.6-3.2-1-4.2-0.5-0.3-1.1-0.8-1.4-1.6-0.4-1.1-1.1-2.4-0.9-4.1 0.1-0.5-1.5 1.1-2.4 0.4-3.9-2.7-7.8-5.8-12.5-8.4-2.5 0-4.3-0.9-5.2-2-0.8-1-0.2-2.3 1-2.4 0.7 0 1.5-0.2 2.1 0.2 0.1-0.4 0.5-0.9 1-0.9M50 14.6l0.2 0.1c1 0.2 1.5 1.6 2.6 1.1 0 0.7 0.1 1.4-0.1 1.9-0.3 0.8-1.2 0.8-1.9 0.8-6.7-0.4-10.6 2.4-14.7 4.8-1.1 0.7-2.3 1.2-3.2 2.1-4.3 4-9 7.7-10.1 15.1l-0.9 8.2c-0.1 0.9-1.1 1.8-0.9 2.9l0.7 4.9c-0.7-0.7-1.1 0.2-0.9 0.6 0.1 0.3 0.5 1.3 1.1 0.4 0.8 1.5 1.6 4.4 2.7 5.7 3.4 4 7.8 7.6 11.4 11.2 0.9-0.2 1.6-0.2 1.8-0.8 0.3 0.6-0.3 1.2-0.8 1.3 1.6 1 3.4 1.9 5.8 2.1 3.1 0.2 6 0.7 8.7 1.4 1.4-0.4 2.8-0.6 4.3-0.7 0.5 0 0.8-0.8 1.4-1l0.1-1c0.6 0.9 0.5-0.3 0.1-0.9 0.7 0.6 0.9 1.1 1.2 1.5 0-0.3 0.8-1.4 0.8-0.1l0.2-1.3c0.3-0.2 0.4 1.1 0.7 0.2 0.3-0.9 0.9-0.2 1.5-0.5-0.2 0.4-0.1 1.2 0.6 0.7l0.8-0.7c0.5 1.2 1.3 0.7 1.7 0.5 4.4-2.8 8.8-6.1 13-9.4l-0.1 1.3 0.5-1.6c0.5 0.5 0.9 0.1 1.1-0.2 0.6-1 1.4-2 2.7-2.9-1.6 4.3-3.5 7.7-5.9 10.5l-1 1.2c0 0.7-0.2 1.6-1 1.7-0.4 0.1-1.2-0.2-1.8 0.4-0.3 0.4 0.7 1.2-0.1 0.6-0.7-0.5-1.4 0-2.2 0.2-0.6 0.2 0.4 0.8 0.6 1.2 0.2 0.4 0.4 0.8 0.3 1.3l-1.1-1.2c-1.3 0.7-2.1 2-3.2 3-0.5 0.4-0.3 1.1-0.3 1.7-0.7 0-1.5-0.2-1.9 0.2-0.3 0.4-0.2 1-0.2 1.6-1-0.1-1.1-1.6-2-1.3-0.9 0.2-1.9 0.3-2.7 0.8 0.6 1.2-1 0.5-0.8 0.7-1.5-0.9-2.8-1.6-4.4-1-3.4-1.1-7.6-0.6-10.7-0.2 0-0.5 0.1-1-0.1-1.1-0.2 0.5-0.8 0.3-0.7 0.3-1.9-1.3-3.8-2.1-5.8-3.2-1.8 0.2-3.5-0.7-4-1.2-1.4-1.3-3-0.6-4.3-0.9-2.8-0.7-3.8-3.6-4.1-5.6-0.2-1-1-1.4-1.3-1.3-1.3-4.2-3.3-8-4.9-11.9-0.4-1-0.3-2-0.3-3.1 0.5 0.2 1 0.1 0.9-0.6-0.5-3.3-1.7-5.8-3-8.2 0.7-3.4 0.8-7.4 2.4-10.4 1.4-2.7 4-4.1 5.8-6.4 0.6-0.8 0.6-1.9 1.2-2.6 2-2 4-4.1 6.2-5.9 1-0.8 2.2 0 3.7-0.3 0.5-1.8 2.5-3.4 4.4-2.9 0.8 0.2 2.4-1.9 2.9-2.1 0.8-0.3 0.4 0.8 0.4 1.5 1.9-1.5 4.5-2.3 6.9-3.2" fill="url(#7fc597ce-efe2-42ba-bd41-c09dfa059b5e)" fill-rule="nonzero" stroke="none" stroke-width="1" stroke-linecap="butt" stroke-linejoin="miter" stroke-miterlimit="10" stroke-dasharray="" stroke-dashoffset="0" font-family="none" font-weight="none" font-size="none" text-anchor="none" style="mix-blend-mode: normal" data-fill-palette-color="tertiary"></path></g><g transform="matrix(1,0,0,1,64,126.55565902965597)"><svg viewBox="0 0 192 106.88868194068806" height="106.88868194068806" width="192"><g><svg viewBox="0 0 192 106.88868194068806" height="106.88868194068806" width="192"><g><svg viewBox="0 0 192 106.88868194068806" height="106.88868194068806" width="192"><g transform="matrix(1,0,0,1,0,79.55089175840112)"><svg viewBox="0 0 192 27.33779018228693" height="27.33779018228693" width="192"><g id="textblocktransform"><svg viewBox="0 0 192 27.33779018228693" height="27.33779018228693" width="192" id="textblock"><g><svg viewBox="0 0 192 27.33779018228693" height="27.33779018228693" width="192"><g transform="matrix(1,0,0,1,0,0)"><svg width="192" viewBox="0.95 -34.25 243.68660093845997 34.7" height="27.33779018228693" data-palette-color="#4b91f1"><path d="M5.9-33.95L5.9-33.95Q7.5-33.85 9.3-33.83 11.1-33.8 13.15-33.8L13.15-33.8Q14.9-33.8 16.78-33.83 18.65-33.85 20.55-33.95L20.55-33.95Q20.5-33.15 20.4-32.4 20.3-31.65 19.95-30.9L19.95-30.9Q18.65-30.7 17.93-30.3 17.2-29.9 16.8-28.85 16.4-27.8 16.05-25.65L16.05-25.65 12.9-7.65Q12.6-5.8 12.65-4.83 12.7-3.85 13.28-3.48 13.85-3.1 14.95-2.9L14.95-2.9Q15.1-2.2 15.13-1.43 15.15-0.65 15.05 0.15L15.05 0.15Q13.85 0.05 12.83 0.03 11.8 0 10.78 0 9.75 0 8.4 0L8.4 0Q6.3 0 4.4 0.03 2.5 0.05 0.95 0.15L0.95 0.15Q1-0.75 1.18-1.48 1.35-2.2 1.65-2.9L1.65-2.9Q3.05-3.05 3.75-3.5 4.45-3.95 4.83-5.08 5.2-6.2 5.55-8.2L5.55-8.2 8.65-26.2Q8.95-28.05 8.83-28.98 8.7-29.9 8.03-30.3 7.35-30.7 5.95-30.9L5.95-30.9Q5.85-31.55 5.83-32.35 5.8-33.15 5.9-33.95ZM25.25-33.95L25.25-33.95Q26.75-33.85 28.23-33.83 29.7-33.8 31.15-33.8L31.15-33.8Q32.2-33.8 33.25-33.83 34.3-33.85 35.3-33.88 36.3-33.9 37.1-33.95L37.1-33.95Q37.1-33.25 37-32.43 36.9-31.6 36.6-30.85L36.6-30.85Q35.2-30.7 34.15-30.38 33.1-30.05 31.88-29.18 30.65-28.3 28.7-26.6L28.7-26.6 19.2-18.2 19.5-19.8Q21.85-17.6 23.78-14.75 25.7-11.9 27.45-7.95L27.45-7.95Q28.2-6.2 28.85-5.58 29.5-4.95 30.35-4.95L30.35-4.95Q30.95-4.95 31.45-5.1 31.95-5.25 32.45-5.65L32.45-5.65Q33-5.25 33.4-4.55 33.8-3.85 34-3.15L34-3.15Q32.5-1.4 30.65-0.48 28.8 0.45 26.55 0.45L26.55 0.45Q24.1 0.4 22.65-0.78 21.2-1.95 20.2-4.8L20.2-4.8Q18.8-8.85 17.23-11.75 15.65-14.65 13.4-17.25L13.4-17.25 23.6-26.5Q25.4-28.1 26.05-28.98 26.7-29.85 26.5-30.28 26.3-30.7 25.4-30.9L25.4-30.9Q25.25-31.6 25.23-32.4 25.2-33.2 25.25-33.95ZM44.85 0L37.6 0 40.2-13.8Q40.6-15.85 40.6-16.85 40.6-17.85 39.92-18.15 39.25-18.45 37.65-18.45L37.65-18.45Q37.65-19.15 37.75-19.93 37.85-20.7 38.1-21.3L38.1-21.3Q39.55-21.35 41.22-21.65 42.9-21.95 44.5-22.4 46.1-22.85 47.3-23.35L47.3-23.35Q48.2-22.95 48.52-22.13 48.85-21.3 48.65-20.1L48.65-20.1Q48.35-18.25 47.9-16.88 47.45-15.5 46.75-13.9L46.75-13.9 45.65-4.4 44.85 0ZM57.75-23.35L57.75-23.35Q59-23.35 60.05-22.85 61.1-22.35 61.77-21.23 62.45-20.1 62.57-18.2 62.7-16.3 62.05-13.55L62.05-13.55 60.85-8.45Q60.4-6.45 60.25-5.53 60.1-4.6 60.27-4.35 60.45-4.1 60.8-4.1L60.8-4.1Q61.25-4.1 61.82-4.42 62.4-4.75 63-5.25L63-5.25Q63.45-4.8 63.82-4.13 64.2-3.45 64.3-2.75L64.3-2.75Q62.65-1.1 60.87-0.33 59.1 0.45 57.3 0.45L57.3 0.45Q54.85 0.45 53.85-0.63 52.85-1.7 52.87-3.65 52.9-5.6 53.45-8.1L53.45-8.1 54.5-12.65Q54.9-14.45 54.9-15.58 54.9-16.7 54.57-17.23 54.25-17.75 53.6-17.75L53.6-17.75Q52.75-17.75 51.65-16.88 50.55-16 49.4-14.33 48.25-12.65 47.25-10.15 46.25-7.65 45.65-4.4L45.65-4.4 45.5-11.2 47.6-15.55Q48.3-17 49.4-18.4 50.5-19.8 51.85-20.93 53.2-22.05 54.72-22.7 56.25-23.35 57.75-23.35ZM76.95 0.45L76.95 0.45Q73.14 0.45 70.75-1.07 68.34-2.6 67.42-5.3 66.5-8 67.09-11.5L67.09-11.5Q67.7-15.2 69.59-17.82 71.5-20.45 74.39-21.9 77.3-23.35 80.95-23.35L80.95-23.35Q84.7-23.35 87.07-21.88 89.45-20.4 90.42-17.78 91.4-15.15 90.8-11.6L90.8-11.6Q90.25-7.95 88.34-5.23 86.45-2.5 83.55-1.03 80.65 0.45 76.95 0.45ZM77.5-2.6L77.5-2.6Q78.8-2.6 79.92-3.65 81.05-4.7 81.92-6.65 82.8-8.6 83.25-11.3L83.25-11.3Q83.95-15.3 83.15-17.8 82.34-20.3 80.25-20.3L80.25-20.3Q78.34-20.3 76.87-18 75.4-15.7 74.7-11.95L74.7-11.95Q74.25-9.05 74.42-6.95 74.59-4.85 75.42-3.73 76.25-2.6 77.5-2.6ZM100.84-23.35L100.84-23.35Q101.64-23.1 102.07-22.68 102.49-22.25 102.77-21.48 103.04-20.7 103.34-19.25L103.34-19.25Q104.04-16.5 104.57-13.73 105.09-10.95 105.52-8.35 105.94-5.75 106.14-3.4L106.14-3.4 105.04-4.35Q107.49-7.2 108.62-9.65 109.74-12.1 109.74-14.9 109.74-17.7 108.64-21.5L108.64-21.5Q111.39-22.05 113.24-23.35L113.24-23.35Q113.94-23.15 114.37-22.8 114.79-22.45 115.12-21.65 115.44-20.85 115.84-19.25L115.84-19.25Q116.59-16.55 117.24-13.78 117.89-11 118.42-8.38 118.94-5.75 119.24-3.45L119.24-3.45 118.09-4.4Q120.99-7.6 122.14-10.05 123.29-12.5 123.29-14.3L123.29-14.3Q123.29-16.4 122.34-17.38 121.39-18.35 119.59-18.4L119.59-18.4Q119.49-19.15 119.49-19.88 119.49-20.6 119.69-21.25L119.69-21.25Q120.79-21.4 122.17-21.78 123.54-22.15 124.84-22.58 126.14-23 126.84-23.35L126.84-23.35Q128.29-22.9 129.09-21.63 129.89-20.35 129.89-17.85L129.89-17.85Q129.89-15.7 128.74-13.1 127.59-10.5 124.82-7.18 122.04-3.85 117.19 0.45L117.19 0.45Q116.29 0.45 115.32 0.28 114.34 0.1 113.69-0.3L113.69-0.3Q113.44-2.6 113.14-4.65 112.84-6.7 112.39-8.63 111.94-10.55 111.34-12.4L111.34-12.4 112.74-13.8Q112.49-11.7 111.84-9.9 111.19-8.1 110.07-6.4 108.94-4.7 107.32-3.03 105.69-1.35 103.44 0.45L103.44 0.45Q102.54 0.45 101.54 0.28 100.54 0.1 99.89-0.3L99.89-0.3Q99.29-4.85 98.52-8.78 97.74-12.7 96.99-15.4L96.99-15.4Q96.54-17.2 95.82-17.85 95.09-18.5 93.14-18.4L93.14-18.4Q93.14-19.1 93.24-19.9 93.34-20.7 93.54-21.3L93.54-21.3Q94.64-21.4 96.04-21.75 97.44-22.1 98.74-22.53 100.04-22.95 100.84-23.35ZM145.39-25.3L145.39-25.3Q142.94-25.3 140.49-24.75 138.04-24.2 135.94-22.95L135.94-22.95Q135.89-21.35 135.61-19.6 135.34-17.85 134.89-16.3L134.89-16.3Q135.69-15.95 136.76-15.78 137.84-15.6 139.04-15.6L139.04-15.6Q139.44-18.1 140.04-19.55 140.64-21 141.49-21.6 142.34-22.2 143.44-22.2L143.44-22.2Q145.09-22.2 145.94-21.08 146.79-19.95 146.34-17.9L146.34-17.9Q145.99-16.05 144.64-14.4 143.29-12.75 140.79-10.9L140.79-10.9Q139.09-9.6 137.91-8.7 136.74-7.8 135.76-7.03 134.79-6.25 133.81-5.4 132.84-4.55 131.54-3.35L131.54-3.35Q131.44-2.4 131.59-1.48 131.74-0.55 132.14 0.15L132.14 0.15Q134.69 0.05 137.06 0.03 139.44 0 141.74 0L141.74 0Q144.19 0 146.11 0.08 148.04 0.15 148.84 0.15L148.84 0.15Q149.99 0.15 150.66-0.18 151.34-0.5 151.79-1.5L151.79-1.5Q151.69-3 151.89-4.93 152.09-6.85 152.49-8.6L152.49-8.6Q151.84-8.95 150.74-9.1 149.64-9.25 148.74-9.15L148.74-9.15Q148.34-7.35 147.84-6.75 147.34-6.15 146.39-6.15L146.39-6.15Q145.89-6.15 144.91-6.23 143.94-6.3 142.79-6.3L142.79-6.3Q141.89-6.3 140.99-6.28 140.09-6.25 139.09-6.15L139.09-6.15 139.04-5.6Q140.34-6.6 141.14-7.23 141.94-7.85 142.44-8.22 142.94-8.6 143.31-8.85 143.69-9.1 144.14-9.38 144.59-9.65 145.24-10.1 145.89-10.55 146.94-11.3L146.94-11.3Q149.19-12.75 150.62-13.93 152.04-15.1 152.84-16.25 153.64-17.4 153.84-18.8L153.84-18.8Q154.39-21.9 152.19-23.6 149.99-25.3 145.39-25.3ZM173.19-32L168.99-7.55Q168.59-5.45 168.81-4.45 169.04-3.45 169.81-3.2 170.59-2.95 171.84-2.95L171.84-2.95Q174.44-2.95 176.46-4.65 178.49-6.35 178.99-9.25L178.99-9.25Q179.74-13 177.99-14.45 176.24-15.9 171.74-15.9L171.74-15.9 169.09-15.9 169.64-19.15 172.49-19.15Q175.69-19.15 177.74-20.83 179.79-22.5 180.34-25.45L180.34-25.45Q180.89-28.15 179.51-29.53 178.14-30.9 175.49-30.9L175.49-30.9Q174.64-30.9 173.91-30.7 173.19-30.5 172.29-30.15L172.29-30.15 173.19-32ZM167.49-33.8L167.49-33.8Q169.39-33.8 171.86-33.88 174.34-33.95 176.79-33.95L176.79-33.95Q181.34-33.95 183.96-33 186.59-32.05 187.54-30.15 188.49-28.25 187.99-25.35L187.99-25.35Q187.54-22.7 185.24-20.8 182.94-18.9 179.14-18.35L179.14-18.35Q184.09-18.1 186.06-15.58 188.04-13.05 187.24-8.6L187.24-8.6Q186.74-6 184.94-4.08 183.14-2.15 179.94-1.07 176.74 0 172.04 0L172.04 0Q169.54 0 166.86 0 164.19 0 161.64 0.03 159.09 0.05 156.94 0.15L156.94 0.15Q156.99-0.75 157.19-1.5 157.39-2.25 157.64-2.9L157.64-2.9Q159.04-3.1 159.76-3.53 160.49-3.95 160.89-5.1 161.29-6.25 161.64-8.55L161.64-8.55 164.74-26.3Q165.09-28.15 164.91-29.08 164.74-30 164.04-30.38 163.34-30.75 162.04-30.9L162.04-30.9Q161.89-31.6 161.89-32.38 161.89-33.15 161.99-33.95L161.99-33.95Q163.39-33.9 164.79-33.85 166.19-33.8 167.49-33.8ZM194.49-7.65L197.69-26.2Q197.99-28.05 197.86-28.98 197.74-29.9 197.06-30.3 196.39-30.7 194.99-30.9L194.99-30.9Q194.89-31.55 194.86-32.35 194.84-33.15 194.94-33.95L194.94-33.95Q196.54-33.85 198.34-33.83 200.14-33.8 202.19-33.8L202.19-33.8Q203.94-33.8 205.81-33.83 207.69-33.85 209.59-33.95L209.59-33.95Q209.54-33.15 209.44-32.4 209.34-31.65 208.99-30.9L208.99-30.9Q207.69-30.7 206.96-30.3 206.24-29.9 205.84-28.85 205.44-27.8 205.09-25.65L205.09-25.65 201.99-7.75Q201.64-5.85 201.74-4.88 201.84-3.9 202.51-3.53 203.19-3.15 204.49-2.9L204.49-2.9Q204.64-2.2 204.66-1.43 204.69-0.65 204.59 0.15L204.59 0.15Q202.74 0.05 201.09 0.03 199.44 0 197.44 0L197.44 0Q195.34 0 193.44 0.03 191.54 0.05 189.99 0.15L189.99 0.15Q190.04-0.75 190.21-1.48 190.39-2.2 190.69-2.9L190.69-2.9Q191.99-3.1 192.69-3.48 193.39-3.85 193.79-4.8 194.19-5.75 194.49-7.65L194.49-7.65ZM225.03 0.45L225.03 0.45Q219.78 0.45 216.23-1.93 212.68-4.3 211.23-8.47 209.78-12.65 210.83-18.1L210.83-18.1Q211.48-21.75 213.21-24.73 214.93-27.7 217.46-29.85 219.98-32 223.16-33.13 226.33-34.25 229.88-34.25L229.88-34.25Q234.98-34.25 238.58-32.05 242.18-29.85 243.73-25.7 245.28-21.55 244.18-15.8L244.18-15.8Q243.28-11.1 240.66-7.43 238.03-3.75 234.03-1.65 230.03 0.45 225.03 0.45ZM225.68-2.65L225.68-2.65Q228.43-2.65 230.58-4.38 232.73-6.1 234.26-9.18 235.78-12.25 236.48-16.25L236.48-16.25Q237.28-20.55 236.58-23.93 235.88-27.3 233.98-29.28 232.08-31.25 229.18-31.25L229.18-31.25Q226.63-31.25 224.51-29.6 222.38-27.95 220.88-25.05 219.38-22.15 218.63-18.4L218.63-18.4Q218.03-15.15 218.16-12.3 218.28-9.45 219.13-7.28 219.98-5.1 221.63-3.88 223.28-2.65 225.68-2.65Z" opacity="1" transform="matrix(1,0,0,1,0,0)" fill="#4b91f1" class="wordmark-text-0" data-fill-palette-color="primary" id="text-0"></path></svg></g></svg></g></svg></g></svg></g><g transform="matrix(1,0,0,1,58.2197760241729,0)"><svg viewBox="0 0 75.5604479516542 75.56165206384108" height="75.56165206384108" width="75.5604479516542"><g><svg xmlns="http://www.w3.org/2000/svg" xmlns:xlink="http://www.w3.org/1999/xlink" version="1.1" x="0" y="0" viewBox="0.6239999999999999 0.6230000000000011 62.751999999999995 62.752999999999986" style="enable-background:new 0 0 64 64;" xml:space="preserve" height="75.56165206384108" width="75.5604479516542" class="icon-icon-0" data-fill-palette-color="accent" id="icon-0"><path d="M49.933 44.128c-0.258-3.006-0.866-6.862-2.265-9.621 4.642-1.655 8.749-4.77 13.818-10.431l1.89-2.115-5.416-5.416-1.975 2.209c-0.635 0.711-1.248 1.356-1.852 1.965L43.281 9.867c0.609-0.604 1.254-1.217 1.965-1.853l2.208-1.974-5.417-5.417-2.116 1.891c-8.35 7.478-11.299 13.794-11.827 25.527C16.369 28.554 10.05 31.509 2.514 39.924l-1.89 2.115 5.416 5.416 1.975-2.209c0.635-0.711 1.248-1.356 1.852-1.965l10.851 10.851c-0.609 0.604-1.254 1.217-1.965 1.853l-2.208 1.974 5.417 5.417 2.116-1.891c4.85-4.344 7.755-8.249 9.513-12.792 2.472 1.435 6.317 1.414 10.392 1.343-0.084 4.709-0.144 9.143 2.144 11.473C47.098 62.498 48.409 63 50.023 63 52.634 63 54 60.56 54 58.148c0-2.2-1.082-4.035-2.128-5.811-0.332-0.563-0.654-1.11-0.935-1.655 1.671 0.616 2.925 1.554 4.052 2.407C56.342 54.115 57.511 55 59 55c2.542 0 4-1.458 4-4C63 45.808 54.209 44.472 49.933 44.128zM33 44c0-1.429 1.595-1.904 2.67-1.984l-1.361 4.765c-0.152-0.107-0.295-0.219-0.422-0.344C33.29 45.853 33 45.055 33 44zM41.896 11.31l10.795 10.795c-0.969 0.875-1.929 1.618-2.91 2.262L39.64 14.226C40.282 13.242 41.023 12.281 41.896 11.31zM38.603 16.017l9.393 9.393c-1.166 0.595-2.397 1.065-3.74 1.432l-7.072-7.072C37.548 18.422 38.013 17.186 38.603 16.017zM36.673 22.088l5.272 5.272c-1.721 0.304-3.651 0.488-5.85 0.591C36.197 25.747 36.375 23.811 36.673 22.088zM37.676 42.273c0.66 0.201 1.311 0.496 1.966 0.841l-1.375 4.813c-0.761-0.074-1.47-0.187-2.106-0.351L37.676 42.273zM36 40c-0.133 0-0.265 0.006-0.397 0.014 0.138-1.243 0.238-2.574 0.303-4.014h3.203c0.261 1.137 0.987 2.137 1.811 3.258 0.735 0.999 1.532 2.095 2.14 3.472-0.349-0.19-0.7-0.388-1.058-0.593C40.166 41.087 38.267 40 36 40zM41 35.12c0-1.525 0.57-2.12 2.033-2.12 0.641 0 1.211 0.302 1.722 0.809l-3.383 2.537C41.142 35.917 41 35.513 41 35.12zM42.531 38.072c-0.016-0.021-0.03-0.041-0.045-0.062l3.403-2.552c0.23 0.462 0.442 0.972 0.634 1.524l-3.104 2.328C43.117 38.869 42.815 38.458 42.531 38.072zM45.554 43.802c-0.284-1.046-0.666-1.961-1.094-2.772l2.655-1.991c0.376 1.571 0.642 3.294 0.801 4.978C47.588 44.007 47.278 44 47 44 46.545 44 46.076 43.932 45.554 43.802zM57.475 20.087l0.565-0.632 2.584 2.584-0.629 0.704c-4.993 5.575-8.954 8.544-13.448 10.038C45.629 31.692 44.483 31 43.033 31c-2.168 0-3.542 1.084-3.917 3h-3.141C35.989 33.347 36 32.685 36 32c0-0.707 0.008-1.384 0.023-2.046C46.307 29.489 51.053 27.271 57.475 20.087zM22.104 52.69L11.309 41.895c0.969-0.875 1.929-1.618 2.91-2.262L24.36 49.774C23.718 50.758 22.977 51.719 22.104 52.69zM25.397 47.983l-9.393-9.393c1.166-0.595 2.397-1.065 3.74-1.432l7.072 7.072C26.452 45.578 25.987 46.814 25.397 47.983zM27.327 41.912l-5.272-5.272c1.721-0.304 3.651-0.488 5.85-0.591C27.803 38.253 27.625 40.189 27.327 41.912zM6.525 43.913l-0.565 0.632-2.584-2.584 0.629-0.704c7.075-7.899 13.026-10.702 24.02-11.21C28.01 30.684 28 31.331 28 32c0 0.707-0.008 1.384-0.023 2.046C17.693 34.511 12.947 36.729 6.525 43.913zM22.744 59.994l-0.706 0.63-2.583-2.583 0.631-0.565c7.375-6.594 9.495-11.406 9.863-22.384C29.99 34.118 30 33.085 30 32c0-1.009 0.02-1.979 0.049-2.917 0.384-11.729 3.107-17.823 11.207-25.077l0.706-0.63 2.583 2.583-0.631 0.565c-7.375 6.594-9.495 11.406-9.863 22.384C34.01 29.882 34 30.915 34 32c0 1.009-0.02 1.979-0.049 2.917-0.068 2.075-0.207 3.897-0.419 5.569C32.085 41.097 31 42.277 31 44c0 1.29 0.342 2.376 0.987 3.26C30.381 51.802 27.594 55.649 22.744 59.994zM40.313 48.045l1.123-3.931c1.109 0.63 2.258 1.247 3.523 1.603C45.691 45.908 46.358 46 47 46c0.628 0 1.44 0.03 2.34 0.087 2.122 0.149 4.38 0.478 6.342 1.003l-2.007 2.675c-1.035-0.598-2.243-1.133-3.712-1.452C49.016 48.105 48.019 48 47 48c-0.506 0-1.013 0-1.525 0.01l-1.123 0.02C42.99 48.055 41.614 48.079 40.313 48.045zM51.146 55.132c0.336 0.668 0.599 1.335 0.74 2.016l-5.441 0.777c-0.167-0.625-0.281-1.322-0.356-2.071L51.146 55.132zM45.971 53.851c-0.033-1.243-0.011-2.556 0.012-3.856C46.324 49.982 46.663 49.973 47 50c0.521 0 1.02 0.04 1.511 0.101 0.402 1.115 0.992 2.155 1.584 3.16L45.971 53.851zM50.023 61c-1.072 0-1.88-0.292-2.47-0.893-0.086-0.087-0.164-0.185-0.24-0.284l4.556-0.651C51.653 60.067 51.129 61 50.023 61zM55.349 50.867l2.339-3.119c0.541 0.217 1.033 0.456 1.464 0.716l-2.52 3.36c-0.142-0.106-0.287-0.216-0.437-0.329C55.928 51.293 55.643 51.081 55.349 50.867zM59 53c-0.213 0-0.43-0.047-0.654-0.128l2.291-3.054C60.865 50.184 61 50.575 61 51 61 52.439 60.439 53 59 53z" fill="#2ecc40" data-fill-palette-color="accent"></path></svg></g></svg></g><g></g></svg></g></svg></g></svg></g></svg></g><defs></defs><mask id="ba2d5e7c-40ae-4336-adfd-99aad0299970"><g id="SvgjsG1129"><svg viewBox="0 0 320 360" height="360" width="320"><g><svg></svg></g><g><svg viewBox="0 0 320 360" height="360" width="320"><g><path transform="translate(-74.99272,-51.79039) scale(4.65793,4.65793)" d="M20.6 59.9l0.8 1-0.4-1.3c-0.1-0.6-0.8 0.1-0.4 0.3M21.5 59.3c0.3 0.5 0.6 1 0.6 1.5 0 0.7 0.6 1 1.1 1.2-0.7-0.8-1.1-3-1.7-2.7M59.9 16.9c1.7 0 3.3-0.2 5.1 0.2 4.4 1.1 8.1 3.3 10.6 6.4l7 11.2c0.3 2.8 0.9 5.9 0.8 9.3 0.7 0 0.6-1 1.4-1.2-0.8 2-1.2 4.5-1.4 7.4-0.5-1.6 0-4 0.1-5.3-0.7 1.1-1.1 0.3-1.1-0.2 0.1-0.8-0.3-0.7-0.6-1-1.1-1-1.8-2.1-2.6-3.8 0.5-1.3 0.6-3.2-1-4.2-0.5-0.3-1.1-0.8-1.4-1.6-0.4-1.1-1.1-2.4-0.9-4.1 0.1-0.5-1.5 1.1-2.4 0.4-3.9-2.7-7.8-5.8-12.5-8.4-2.5 0-4.3-0.9-5.2-2-0.8-1-0.2-2.3 1-2.4 0.7 0 1.5-0.2 2.1 0.2 0.1-0.4 0.5-0.9 1-0.9M50 14.6l0.2 0.1c1 0.2 1.5 1.6 2.6 1.1 0 0.7 0.1 1.4-0.1 1.9-0.3 0.8-1.2 0.8-1.9 0.8-6.7-0.4-10.6 2.4-14.7 4.8-1.1 0.7-2.3 1.2-3.2 2.1-4.3 4-9 7.7-10.1 15.1l-0.9 8.2c-0.1 0.9-1.1 1.8-0.9 2.9l0.7 4.9c-0.7-0.7-1.1 0.2-0.9 0.6 0.1 0.3 0.5 1.3 1.1 0.4 0.8 1.5 1.6 4.4 2.7 5.7 3.4 4 7.8 7.6 11.4 11.2 0.9-0.2 1.6-0.2 1.8-0.8 0.3 0.6-0.3 1.2-0.8 1.3 1.6 1 3.4 1.9 5.8 2.1 3.1 0.2 6 0.7 8.7 1.4 1.4-0.4 2.8-0.6 4.3-0.7 0.5 0 0.8-0.8 1.4-1l0.1-1c0.6 0.9 0.5-0.3 0.1-0.9 0.7 0.6 0.9 1.1 1.2 1.5 0-0.3 0.8-1.4 0.8-0.1l0.2-1.3c0.3-0.2 0.4 1.1 0.7 0.2 0.3-0.9 0.9-0.2 1.5-0.5-0.2 0.4-0.1 1.2 0.6 0.7l0.8-0.7c0.5 1.2 1.3 0.7 1.7 0.5 4.4-2.8 8.8-6.1 13-9.4l-0.1 1.3 0.5-1.6c0.5 0.5 0.9 0.1 1.1-0.2 0.6-1 1.4-2 2.7-2.9-1.6 4.3-3.5 7.7-5.9 10.5l-1 1.2c0 0.7-0.2 1.6-1 1.7-0.4 0.1-1.2-0.2-1.8 0.4-0.3 0.4 0.7 1.2-0.1 0.6-0.7-0.5-1.4 0-2.2 0.2-0.6 0.2 0.4 0.8 0.6 1.2 0.2 0.4 0.4 0.8 0.3 1.3l-1.1-1.2c-1.3 0.7-2.1 2-3.2 3-0.5 0.4-0.3 1.1-0.3 1.7-0.7 0-1.5-0.2-1.9 0.2-0.3 0.4-0.2 1-0.2 1.6-1-0.1-1.1-1.6-2-1.3-0.9 0.2-1.9 0.3-2.7 0.8 0.6 1.2-1 0.5-0.8 0.7-1.5-0.9-2.8-1.6-4.4-1-3.4-1.1-7.6-0.6-10.7-0.2 0-0.5 0.1-1-0.1-1.1-0.2 0.5-0.8 0.3-0.7 0.3-1.9-1.3-3.8-2.1-5.8-3.2-1.8 0.2-3.5-0.7-4-1.2-1.4-1.3-3-0.6-4.3-0.9-2.8-0.7-3.8-3.6-4.1-5.6-0.2-1-1-1.4-1.3-1.3-1.3-4.2-3.3-8-4.9-11.9-0.4-1-0.3-2-0.3-3.1 0.5 0.2 1 0.1 0.9-0.6-0.5-3.3-1.7-5.8-3-8.2 0.7-3.4 0.8-7.4 2.4-10.4 1.4-2.7 4-4.1 5.8-6.4 0.6-0.8 0.6-1.9 1.2-2.6 2-2 4-4.1 6.2-5.9 1-0.8 2.2 0 3.7-0.3 0.5-1.8 2.5-3.4 4.4-2.9 0.8 0.2 2.4-1.9 2.9-2.1 0.8-0.3 0.4 0.8 0.4 1.5 1.9-1.5 4.5-2.3 6.9-3.2" fill="white" fill-rule="nonzero" stroke="none" stroke-width="1" stroke-linecap="butt" stroke-linejoin="miter" stroke-miterlimit="10" stroke-dasharray="" stroke-dashoffset="0" font-family="none" font-weight="none" font-size="none" text-anchor="none" style="mix-blend-mode: normal"></path></g><g transform="matrix(1,0,0,1,64,126.55565902965597)"><svg viewBox="0 0 192 106.88868194068806" height="106.88868194068806" width="192"><g><svg viewBox="0 0 192 106.88868194068806" height="106.88868194068806" width="192"><g><svg viewBox="0 0 192 106.88868194068806" height="106.88868194068806" width="192"><g transform="matrix(1,0,0,1,0,79.55089175840112)"><svg viewBox="0 0 192 27.33779018228693" height="27.33779018228693" width="192"><g id="SvgjsG1128"><svg viewBox="0 0 192 27.33779018228693" height="27.33779018228693" width="192" id="SvgjsSvg1127"><g><svg viewBox="0 0 192 27.33779018228693" height="27.33779018228693" width="192"><g transform="matrix(1,0,0,1,0,0)"><svg width="192" viewBox="0.95 -34.25 243.68660093845997 34.7" height="27.33779018228693" data-palette-color="#4b91f1"></svg></g></svg></g></svg></g></svg></g><g transform="matrix(1,0,0,1,58.2197760241729,0)"><svg viewBox="0 0 75.5604479516542 75.56165206384108" height="75.56165206384108" width="75.5604479516542"><g><svg xmlns="http://www.w3.org/2000/svg" xmlns:xlink="http://www.w3.org/1999/xlink" version="1.1" x="0" y="0" viewBox="0.6239999999999999 0.6230000000000011 62.751999999999995 62.752999999999986" style="enable-background:new 0 0 64 64;" xml:space="preserve" height="75.56165206384108" width="75.5604479516542" class="icon-icon-0" data-fill-palette-color="accent" id="SvgjsSvg1125"></svg></g></svg></g><g></g></svg></g></svg></g></svg></g></svg></g><defs><mask></mask></defs></svg></g></mask><linearGradient x1="0" x2="1" y1="0.578" y2="0.595" id="7fc597ce-efe2-42ba-bd41-c09dfa059b5e"><stop stop-color="#6ee2f5" offset="0"></stop><stop stop-color="#6454f0" offset="1"></stop></linearGradient></svg><rect width="320" height="360" fill="none" stroke="none" visibility="hidden"></rect></g></svg></g></svg>