<svg xmlns="http://www.w3.org/2000/svg" version="1.1" xmlns:xlink="http://www.w3.org/1999/xlink" xmlns:svgjs="http://svgjs.dev/svgjs" width="1000" height="1125" viewBox="0 0 1000 1125"><g transform="matrix(1,0,0,1,1.7053025658242404e-13,0)"><svg viewBox="0 0 320 360" data-background-color="#ffffff" preserveAspectRatio="xMidYMid meet" height="1125" width="1000" xmlns="http://www.w3.org/2000/svg" xmlns:xlink="http://www.w3.org/1999/xlink"><g id="tight-bounds" transform="matrix(1,0,0,1,0,0)"><svg viewBox="0 0 320 360" height="360" width="320"><rect width="320" height="360" fill="url(#61707948-d8ae-426f-b99a-4ecc6a072040)" mask="url(#b6eef2a3-aec9-47ef-b354-a5856df34b0b)" data-fill-palette-color="tertiary"></rect><g><svg></svg></g><g><svg viewBox="0 0 320 360" height="360" width="320"><g><path xmlns="http://www.w3.org/2000/svg" d="M20.961 227.22l3.726 4.658-1.863-6.056c-0.466-2.795-3.726 0.466-1.863 1.398M25.153 224.425c1.397 2.329 2.795 4.658 2.795 6.987 0 3.261 2.795 4.658 5.123 5.589-3.261-3.726-5.124-13.974-7.918-12.576M204.017 26.929c7.918 0 15.371-0.932 23.756 0.931 20.495 5.124 37.729 15.371 49.374 29.811l32.606 52.169c1.397 13.042 4.192 27.482 3.726 43.319 3.261 0 2.795-4.658 6.521-5.59-3.726 9.316-5.59 20.961-6.521 34.469-2.329-7.453 0-18.632 0.466-24.687-3.261 5.124-5.124 1.397-5.124-0.932 0.466-3.726-1.397-3.261-2.795-4.658-5.124-4.658-8.384-9.782-12.11-17.7 2.329-6.055 2.795-14.905-4.658-19.563-2.329-1.397-5.124-3.726-6.521-7.453-1.863-5.124-5.124-11.179-4.193-19.097 0.466-2.329-6.987 5.124-11.179 1.863-18.166-12.576-36.332-27.016-58.224-39.127-11.645 0-20.029-4.192-24.221-9.316-3.726-4.658-0.932-10.713 4.658-11.179 3.261 0 6.987-0.932 9.782 0.932 0.466-1.863 2.329-4.192 4.657-4.192M157.904 16.215l0.932 0.466c4.658 0.932 6.987 7.453 12.11 5.124 0 3.261 0.466 6.521-0.466 8.85-1.397 3.726-5.59 3.726-8.85 3.726-31.208-1.863-49.374 11.179-68.471 22.358-5.124 3.261-10.713 5.59-14.906 9.782-20.029 18.632-41.921 35.866-47.045 70.335l-4.192 38.195c-0.466 4.192-5.124 8.384-4.192 13.508l3.26 22.824c-3.261-3.261-5.124 0.932-4.192 2.795 0.466 1.397 2.329 6.055 5.124 1.863 3.726 6.987 7.453 20.495 12.576 26.55 15.837 18.632 36.332 35.4 53.101 52.169 4.192-0.932 7.453-0.932 8.384-3.727 1.397 2.795-1.397 5.59-3.726 6.056 7.453 4.658 15.837 8.85 27.016 9.781 14.44 0.932 27.948 3.261 40.524 6.522 6.521-1.863 13.042-2.795 20.029-3.261 2.329 0 3.726-3.726 6.521-4.658l0.466-4.658c2.795 4.192 2.329-1.397 0.466-4.192 3.261 2.795 4.192 5.124 5.589 6.987 0-1.397 3.726-6.521 3.727-0.466l0.931-6.055c1.397-0.932 1.863 5.124 3.261 0.931 1.397-4.192 4.192-0.932 6.987-2.329-0.932 1.863-0.466 5.59 2.794 3.261l3.727-3.261c2.329 5.59 6.055 3.261 7.918 2.329 20.495-13.042 40.99-28.413 60.553-43.784l-0.466 6.055 2.329-7.453c2.329 2.329 4.192 0.466 5.124-0.931 2.795-4.658 6.521-9.316 12.577-13.508-7.453 20.029-16.303 35.866-27.482 48.908l-4.658 5.59c0 3.261-0.932 7.453-4.658 7.918-1.863 0.466-5.59-0.932-8.384 1.863-1.397 1.863 3.261 5.59-0.466 2.795-3.261-2.329-6.521 0-10.248 0.932-2.795 0.932 1.863 3.726 2.795 5.589 0.932 1.863 1.863 3.726 1.398 6.056l-5.124-5.59c-6.055 3.261-9.782 9.316-14.906 13.974-2.329 1.863-1.397 5.124-1.397 7.918-3.261 0-6.987-0.932-8.85 0.932-1.397 1.863-0.932 4.658-0.932 7.453-4.658-0.466-5.124-7.453-9.315-6.056-4.192 0.932-8.85 1.397-12.577 3.727 2.795 5.59-4.658 2.329-3.726 3.26-6.987-4.192-13.042-7.453-20.495-4.658-15.837-5.124-35.4-2.795-49.84-0.931 0-2.329 0.466-4.658-0.466-5.124-0.932 2.329-3.726 1.397-3.26 1.397-8.85-6.055-17.7-9.782-27.016-14.905-8.384 0.932-16.303-3.261-18.632-5.59-6.521-6.055-13.974-2.795-20.029-4.192-13.042-3.261-17.7-16.769-19.098-26.084-0.932-4.658-4.658-6.521-6.055-6.056-6.055-19.563-15.371-37.263-22.824-55.429-1.863-4.658-1.397-9.316-1.397-14.44 2.329 0.932 4.658 0.466 4.192-2.794-2.329-15.371-7.918-27.016-13.974-38.195 3.261-15.837 3.726-34.469 11.179-48.443 6.521-12.576 18.632-19.098 27.016-29.811 2.795-3.726 2.795-8.85 5.59-12.11 9.316-9.316 18.632-19.098 28.879-27.482 4.658-3.726 10.247 0 17.234-1.397 2.329-8.384 11.645-15.837 20.495-13.508 3.726 0.932 11.179-8.85 13.508-9.782 3.726-1.397 1.863 3.726 1.863 6.987 8.85-6.987 20.961-10.713 32.14-14.906" fill="url(#61707948-d8ae-426f-b99a-4ecc6a072040)" fill-rule="nonzero" stroke="none" stroke-width="1" stroke-linecap="butt" stroke-linejoin="miter" stroke-miterlimit="10" stroke-dasharray="" stroke-dashoffset="0" font-family="none" font-weight="none" font-size="none" text-anchor="none" style="mix-blend-mode: normal" data-fill-palette-color="tertiary"></path></g><g transform="matrix(1,0,0,1,64,97.25394128758204)"><svg viewBox="0 0 192 165.49211742483593" height="165.49211742483593" width="192"><g><svg viewBox="0 0 192 165.49211742483593" height="165.49211742483593" width="192"><g><svg viewBox="0 0 192 165.49211742483593" height="165.49211742483593" width="192"><g transform="matrix(1,0,0,1,0,122.58487041891779)"><svg viewBox="0 0 192 42.90724700591814" height="42.90724700591814" width="192"><g id="textblocktransform"><svg viewBox="0 0 192 42.90724700591814" height="42.90724700591814" width="192" id="textblock"><g><svg viewBox="0 0 192 27.33779018228693" height="27.33779018228693" width="192"><g transform="matrix(1,0,0,1,0,0)"><svg width="192" viewBox="0.9500000476837158 -34.25 243.6865997314453 34.70000076293945" height="27.33779018228693" data-palette-color="#4b91f1"><path d="M5.9-33.95L5.9-33.95Q7.5-33.85 9.3-33.83 11.1-33.8 13.15-33.8L13.15-33.8Q14.9-33.8 16.78-33.83 18.65-33.85 20.55-33.95L20.55-33.95Q20.5-33.15 20.4-32.4 20.3-31.65 19.95-30.9L19.95-30.9Q18.65-30.7 17.93-30.3 17.2-29.9 16.8-28.85 16.4-27.8 16.05-25.65L16.05-25.65 12.9-7.65Q12.6-5.8 12.65-4.83 12.7-3.85 13.28-3.48 13.85-3.1 14.95-2.9L14.95-2.9Q15.1-2.2 15.13-1.43 15.15-0.65 15.05 0.15L15.05 0.15Q13.85 0.05 12.83 0.03 11.8 0 10.78 0 9.75 0 8.4 0L8.4 0Q6.3 0 4.4 0.03 2.5 0.05 0.95 0.15L0.95 0.15Q1-0.75 1.18-1.48 1.35-2.2 1.65-2.9L1.65-2.9Q3.05-3.05 3.75-3.5 4.45-3.95 4.83-5.08 5.2-6.2 5.55-8.2L5.55-8.2 8.65-26.2Q8.95-28.05 8.83-28.98 8.7-29.9 8.03-30.3 7.35-30.7 5.95-30.9L5.95-30.9Q5.85-31.55 5.83-32.35 5.8-33.15 5.9-33.95ZM25.25-33.95L25.25-33.95Q26.75-33.85 28.23-33.83 29.7-33.8 31.15-33.8L31.15-33.8Q32.2-33.8 33.25-33.83 34.3-33.85 35.3-33.88 36.3-33.9 37.1-33.95L37.1-33.95Q37.1-33.25 37-32.43 36.9-31.6 36.6-30.85L36.6-30.85Q35.2-30.7 34.15-30.38 33.1-30.05 31.88-29.18 30.65-28.3 28.7-26.6L28.7-26.6 19.2-18.2 19.5-19.8Q21.85-17.6 23.78-14.75 25.7-11.9 27.45-7.95L27.45-7.95Q28.2-6.2 28.85-5.58 29.5-4.95 30.35-4.95L30.35-4.95Q30.95-4.95 31.45-5.1 31.95-5.25 32.45-5.65L32.45-5.65Q33-5.25 33.4-4.55 33.8-3.85 34-3.15L34-3.15Q32.5-1.4 30.65-0.48 28.8 0.45 26.55 0.45L26.55 0.45Q24.1 0.4 22.65-0.78 21.2-1.95 20.2-4.8L20.2-4.8Q18.8-8.85 17.23-11.75 15.65-14.65 13.4-17.25L13.4-17.25 23.6-26.5Q25.4-28.1 26.05-28.98 26.7-29.85 26.5-30.28 26.3-30.7 25.4-30.9L25.4-30.9Q25.25-31.6 25.23-32.4 25.2-33.2 25.25-33.95ZM44.85 0L37.6 0 40.2-13.8Q40.6-15.85 40.6-16.85 40.6-17.85 39.92-18.15 39.25-18.45 37.65-18.45L37.65-18.45Q37.65-19.15 37.75-19.93 37.85-20.7 38.1-21.3L38.1-21.3Q39.55-21.35 41.22-21.65 42.9-21.95 44.5-22.4 46.1-22.85 47.3-23.35L47.3-23.35Q48.2-22.95 48.52-22.13 48.85-21.3 48.65-20.1L48.65-20.1Q48.35-18.25 47.9-16.88 47.45-15.5 46.75-13.9L46.75-13.9 45.65-4.4 44.85 0ZM57.75-23.35L57.75-23.35Q59-23.35 60.05-22.85 61.1-22.35 61.77-21.23 62.45-20.1 62.57-18.2 62.7-16.3 62.05-13.55L62.05-13.55 60.85-8.45Q60.4-6.45 60.25-5.53 60.1-4.6 60.27-4.35 60.45-4.1 60.8-4.1L60.8-4.1Q61.25-4.1 61.82-4.42 62.4-4.75 63-5.25L63-5.25Q63.45-4.8 63.82-4.13 64.2-3.45 64.3-2.75L64.3-2.75Q62.65-1.1 60.87-0.33 59.1 0.45 57.3 0.45L57.3 0.45Q54.85 0.45 53.85-0.63 52.85-1.7 52.87-3.65 52.9-5.6 53.45-8.1L53.45-8.1 54.5-12.65Q54.9-14.45 54.9-15.58 54.9-16.7 54.57-17.23 54.25-17.75 53.6-17.75L53.6-17.75Q52.75-17.75 51.65-16.88 50.55-16 49.4-14.33 48.25-12.65 47.25-10.15 46.25-7.65 45.65-4.4L45.65-4.4 45.5-11.2 47.6-15.55Q48.3-17 49.4-18.4 50.5-19.8 51.85-20.93 53.2-22.05 54.72-22.7 56.25-23.35 57.75-23.35ZM76.95 0.45L76.95 0.45Q73.14 0.45 70.75-1.07 68.34-2.6 67.42-5.3 66.5-8 67.09-11.5L67.09-11.5Q67.7-15.2 69.59-17.82 71.5-20.45 74.39-21.9 77.3-23.35 80.95-23.35L80.95-23.35Q84.7-23.35 87.07-21.88 89.45-20.4 90.42-17.78 91.4-15.15 90.8-11.6L90.8-11.6Q90.25-7.95 88.34-5.23 86.45-2.5 83.55-1.03 80.65 0.45 76.95 0.45ZM77.5-2.6L77.5-2.6Q78.8-2.6 79.92-3.65 81.05-4.7 81.92-6.65 82.8-8.6 83.25-11.3L83.25-11.3Q83.95-15.3 83.15-17.8 82.34-20.3 80.25-20.3L80.25-20.3Q78.34-20.3 76.87-18 75.4-15.7 74.7-11.95L74.7-11.95Q74.25-9.05 74.42-6.95 74.59-4.85 75.42-3.73 76.25-2.6 77.5-2.6ZM100.84-23.35L100.84-23.35Q101.64-23.1 102.07-22.68 102.49-22.25 102.77-21.48 103.04-20.7 103.34-19.25L103.34-19.25Q104.04-16.5 104.57-13.73 105.09-10.95 105.52-8.35 105.94-5.75 106.14-3.4L106.14-3.4 105.04-4.35Q107.49-7.2 108.62-9.65 109.74-12.1 109.74-14.9 109.74-17.7 108.64-21.5L108.64-21.5Q111.39-22.05 113.24-23.35L113.24-23.35Q113.94-23.15 114.37-22.8 114.79-22.45 115.12-21.65 115.44-20.85 115.84-19.25L115.84-19.25Q116.59-16.55 117.24-13.78 117.89-11 118.42-8.38 118.94-5.75 119.24-3.45L119.24-3.45 118.09-4.4Q120.99-7.6 122.14-10.05 123.29-12.5 123.29-14.3L123.29-14.3Q123.29-16.4 122.34-17.38 121.39-18.35 119.59-18.4L119.59-18.4Q119.49-19.15 119.49-19.88 119.49-20.6 119.69-21.25L119.69-21.25Q120.79-21.4 122.17-21.78 123.54-22.15 124.84-22.58 126.14-23 126.84-23.35L126.84-23.35Q128.29-22.9 129.09-21.63 129.89-20.35 129.89-17.85L129.89-17.85Q129.89-15.7 128.74-13.1 127.59-10.5 124.82-7.18 122.04-3.85 117.19 0.45L117.19 0.45Q116.29 0.45 115.32 0.28 114.34 0.1 113.69-0.3L113.69-0.3Q113.44-2.6 113.14-4.65 112.84-6.7 112.39-8.63 111.94-10.55 111.34-12.4L111.34-12.4 112.74-13.8Q112.49-11.7 111.84-9.9 111.19-8.1 110.07-6.4 108.94-4.7 107.32-3.03 105.69-1.35 103.44 0.45L103.44 0.45Q102.54 0.45 101.54 0.28 100.54 0.1 99.89-0.3L99.89-0.3Q99.29-4.85 98.52-8.78 97.74-12.7 96.99-15.4L96.99-15.4Q96.54-17.2 95.82-17.85 95.09-18.5 93.14-18.4L93.14-18.4Q93.14-19.1 93.24-19.9 93.34-20.7 93.54-21.3L93.54-21.3Q94.64-21.4 96.04-21.75 97.44-22.1 98.74-22.53 100.04-22.95 100.84-23.35ZM145.39-25.3L145.39-25.3Q142.94-25.3 140.49-24.75 138.04-24.2 135.94-22.95L135.94-22.95Q135.89-21.35 135.61-19.6 135.34-17.85 134.89-16.3L134.89-16.3Q135.69-15.95 136.76-15.78 137.84-15.6 139.04-15.6L139.04-15.6Q139.44-18.1 140.04-19.55 140.64-21 141.49-21.6 142.34-22.2 143.44-22.2L143.44-22.2Q145.09-22.2 145.94-21.08 146.79-19.95 146.34-17.9L146.34-17.9Q145.99-16.05 144.64-14.4 143.29-12.75 140.79-10.9L140.79-10.9Q139.09-9.6 137.91-8.7 136.74-7.8 135.76-7.03 134.79-6.25 133.81-5.4 132.84-4.55 131.54-3.35L131.54-3.35Q131.44-2.4 131.59-1.48 131.74-0.55 132.14 0.15L132.14 0.15Q134.69 0.05 137.06 0.03 139.44 0 141.74 0L141.74 0Q144.19 0 146.11 0.08 148.04 0.15 148.84 0.15L148.84 0.15Q149.99 0.15 150.66-0.18 151.34-0.5 151.79-1.5L151.79-1.5Q151.69-3 151.89-4.93 152.09-6.85 152.49-8.6L152.49-8.6Q151.84-8.95 150.74-9.1 149.64-9.25 148.74-9.15L148.74-9.15Q148.34-7.35 147.84-6.75 147.34-6.15 146.39-6.15L146.39-6.15Q145.89-6.15 144.91-6.23 143.94-6.3 142.79-6.3L142.79-6.3Q141.89-6.3 140.99-6.28 140.09-6.25 139.09-6.15L139.09-6.15 139.04-5.6Q140.34-6.6 141.14-7.23 141.94-7.85 142.44-8.22 142.94-8.6 143.31-8.85 143.69-9.1 144.14-9.38 144.59-9.65 145.24-10.1 145.89-10.55 146.94-11.3L146.94-11.3Q149.19-12.75 150.62-13.93 152.04-15.1 152.84-16.25 153.64-17.4 153.84-18.8L153.84-18.8Q154.39-21.9 152.19-23.6 149.99-25.3 145.39-25.3ZM173.19-32L168.99-7.55Q168.59-5.45 168.81-4.45 169.04-3.45 169.81-3.2 170.59-2.95 171.84-2.95L171.84-2.95Q174.44-2.95 176.46-4.65 178.49-6.35 178.99-9.25L178.99-9.25Q179.74-13 177.99-14.45 176.24-15.9 171.74-15.9L171.74-15.9 169.09-15.9 169.64-19.15 172.49-19.15Q175.69-19.15 177.74-20.83 179.79-22.5 180.34-25.45L180.34-25.45Q180.89-28.15 179.51-29.53 178.14-30.9 175.49-30.9L175.49-30.9Q174.64-30.9 173.91-30.7 173.19-30.5 172.29-30.15L172.29-30.15 173.19-32ZM167.49-33.8L167.49-33.8Q169.39-33.8 171.86-33.88 174.34-33.95 176.79-33.95L176.79-33.95Q181.34-33.95 183.96-33 186.59-32.05 187.54-30.15 188.49-28.25 187.99-25.35L187.99-25.35Q187.54-22.7 185.24-20.8 182.94-18.9 179.14-18.35L179.14-18.35Q184.09-18.1 186.06-15.58 188.04-13.05 187.24-8.6L187.24-8.6Q186.74-6 184.94-4.08 183.14-2.15 179.94-1.07 176.74 0 172.04 0L172.04 0Q169.54 0 166.86 0 164.19 0 161.64 0.03 159.09 0.05 156.94 0.15L156.94 0.15Q156.99-0.75 157.19-1.5 157.39-2.25 157.64-2.9L157.64-2.9Q159.04-3.1 159.76-3.53 160.49-3.95 160.89-5.1 161.29-6.25 161.64-8.55L161.64-8.55 164.74-26.3Q165.09-28.15 164.91-29.08 164.74-30 164.04-30.38 163.34-30.75 162.04-30.9L162.04-30.9Q161.89-31.6 161.89-32.38 161.89-33.15 161.99-33.95L161.99-33.95Q163.39-33.9 164.79-33.85 166.19-33.8 167.49-33.8ZM194.49-7.65L197.69-26.2Q197.99-28.05 197.86-28.98 197.74-29.9 197.06-30.3 196.39-30.7 194.99-30.9L194.99-30.9Q194.89-31.55 194.86-32.35 194.84-33.15 194.94-33.95L194.94-33.95Q196.54-33.85 198.34-33.83 200.14-33.8 202.19-33.8L202.19-33.8Q203.94-33.8 205.81-33.83 207.69-33.85 209.59-33.95L209.59-33.95Q209.54-33.15 209.44-32.4 209.34-31.65 208.99-30.9L208.99-30.9Q207.69-30.7 206.96-30.3 206.24-29.9 205.84-28.85 205.44-27.8 205.09-25.65L205.09-25.65 201.99-7.75Q201.64-5.85 201.74-4.88 201.84-3.9 202.51-3.53 203.19-3.15 204.49-2.9L204.49-2.9Q204.64-2.2 204.66-1.43 204.69-0.65 204.59 0.15L204.59 0.15Q202.74 0.05 201.09 0.03 199.44 0 197.44 0L197.44 0Q195.34 0 193.44 0.03 191.54 0.05 189.99 0.15L189.99 0.15Q190.04-0.75 190.21-1.48 190.39-2.2 190.69-2.9L190.69-2.9Q191.99-3.1 192.69-3.48 193.39-3.85 193.79-4.8 194.19-5.75 194.49-7.65L194.49-7.65ZM225.03 0.45L225.03 0.45Q219.78 0.45 216.23-1.93 212.68-4.3 211.23-8.47 209.78-12.65 210.83-18.1L210.83-18.1Q211.48-21.75 213.21-24.73 214.93-27.7 217.46-29.85 219.98-32 223.16-33.13 226.33-34.25 229.88-34.25L229.88-34.25Q234.98-34.25 238.58-32.05 242.18-29.85 243.73-25.7 245.28-21.55 244.18-15.8L244.18-15.8Q243.28-11.1 240.66-7.43 238.03-3.75 234.03-1.65 230.03 0.45 225.03 0.45ZM225.68-2.65L225.68-2.65Q228.43-2.65 230.58-4.38 232.73-6.1 234.26-9.18 235.78-12.25 236.48-16.25L236.48-16.25Q237.28-20.55 236.58-23.93 235.88-27.3 233.98-29.28 232.08-31.25 229.18-31.25L229.18-31.25Q226.63-31.25 224.51-29.6 222.38-27.95 220.88-25.05 219.38-22.15 218.63-18.4L218.63-18.4Q218.03-15.15 218.16-12.3 218.28-9.45 219.13-7.28 219.98-5.1 221.63-3.88 223.28-2.65 225.68-2.65Z" opacity="1" transform="matrix(1,0,0,1,0,0)" fill="#4b91f1" class="wordmark-text-0" data-fill-palette-color="primary" id="text-0"></path></svg></g></svg></g><g transform="matrix(1,0,0,1,0,31.327029876846968)"><svg viewBox="0 0 192 11.58021712907117" height="11.58021712907117" width="192"><g transform="matrix(1,0,0,1,0,0)"><svg width="192" viewBox="3.75 -37.5 828.9099731445312 50" height="11.58021712907117" data-palette-color="#4b91f1"><path d="M18.55-20.1L18.55-20.1Q24.1-18.05 24.1-10.85L24.1-10.85Q24.1-7.2 23.28-5.2 22.45-3.2 20.9-2.05L20.9-2.05Q18.05 0 12 0L12 0 3.75 0 3.75-35 11.25-35Q19.15-35 21.25-31L21.25-31Q22-29.6 22-27.6 22-25.6 20.98-23.5 19.95-21.4 18.55-20.1ZM13-18.15L7.15-18.15 7.15-2.75 11.75-2.75Q16.4-2.75 18.3-4L18.3-4Q20.7-5.55 20.7-10.15L20.7-10.15Q20.7-16.4 16.3-17.7L16.3-17.7Q14.85-18.15 13-18.15L13-18.15ZM16.15-20.7L16.15-20.7Q18.6-23.9 18.6-27 18.6-30.1 16.65-31.18 14.7-32.25 11-32.25L11-32.25 7.15-32.25 7.15-20.9 13.25-20.9Q14.75-20.9 16.15-20.7ZM29.3-25L32.55-25.25 32.55 0 29.3 0 29.3-25ZM30.8-31.7Q29.8-31.7 29.27-32.35 28.75-33 28.75-34 28.75-35 29.32-35.63 29.9-36.25 30.9-36.25 31.9-36.25 32.52-35.63 33.15-35 33.15-33.9 33.15-32.8 32.47-32.25 31.8-31.7 30.8-31.7ZM39.59-6.4L39.59-6.4Q38.7-8.8 38.7-12L38.7-12Q38.7-18.15 42.15-21.68 45.59-25.2 50.8-25.2L50.8-25.2Q58.95-25.2 61.5-18.6L61.5-18.6Q62.45-16.2 62.45-13L62.45-13Q62.45-6.85 59-3.33 55.55 0.2 50.34 0.2L50.34 0.2Q42.2 0.2 39.59-6.4ZM41.95-12.35Q41.95-7.75 44.32-5.23 46.7-2.7 50.45-2.7 54.2-2.7 56.7-5.38 59.2-8.05 59.2-12.65 59.2-17.25 56.84-19.78 54.5-22.3 50.72-22.3 46.95-22.3 44.45-19.63 41.95-16.95 41.95-12.35ZM75.79-22.25L75.79-22.25Q72.99-22.1 69.74-20.4L69.74-20.4 69.74 0 66.49 0 66.49-25 69.74-25.25 69.74-22.45Q73.09-25 76.24-25.15L76.24-25.15Q81.54-25.15 83.54-22.5L83.54-22.5Q87.34-25 90.89-25.15L90.89-25.15Q93.94-25.15 95.59-24.4 97.24-23.65 98.32-22.28 99.39-20.9 99.39-18.4L99.39-18.4 99.39 0 96.14 0 96.14-17.55Q96.14-19.4 95.29-20.4L95.29-20.4Q93.74-22.25 90.89-22.25L90.89-22.25Q87.89-22.25 84.49-20.45L84.49-20.45Q84.74-19.45 84.74-18.4L84.74-18.4 84.74 0 81.49 0 81.49-17.55Q81.49-19.4 80.69-20.4L80.69-20.4Q79.09-22.25 75.79-22.25ZM108.39-12.3L108.39-11.5Q108.39-2.7 116.79-2.7L116.79-2.7Q120.34-2.7 123.29-3.65L123.29-3.65Q124.04-3.9 124.34-4.05L124.34-4.05 125.09-1.4Q123.34-0.35 118.74 0.1L118.74 0.1Q117.44 0.2 115.99 0.2L115.99 0.2Q111.79 0.2 108.99-1.9L108.99-1.9Q105.14-4.75 105.14-11.4 105.14-18.05 108.61-21.63 112.09-25.2 117.04-25.2 121.99-25.2 124.49-22L124.49-22Q126.39-19.45 126.39-15.25L126.39-15.25Q126.39-14.25 126.29-13.15L126.29-13.15 108.44-13.15Q108.39-12.75 108.39-12.3L108.39-12.3ZM117.24-22.1L117.24-22.1Q114.14-22.1 111.94-20.23 109.74-18.35 108.89-15.4L108.89-15.4 123.44-15.4Q123.19-20.95 119.14-21.85L119.14-21.85Q118.24-22.1 117.24-22.1ZM142.99-25.25L142.99-25.25Q145.94-25.25 148.59-23.5L148.59-23.5 148.59-37.25 151.84-37.5 151.84-1.15 151.59-1.15Q150.04-0.5 146.41-0.15 142.79 0.2 141.39 0.2L141.39 0.2Q137.19 0.2 134.44-1.9L134.44-1.9Q130.59-4.8 130.59-11.45 130.59-18.1 134.16-21.68 137.74-25.25 142.99-25.25ZM148.59-3.2L148.59-21.35Q146.09-22.3 143.69-22.3L143.69-22.3Q139.09-22.3 136.46-19.5 133.84-16.7 133.84-11.55 133.84-6.4 136.69-4.3L136.69-4.3Q138.74-2.7 141.86-2.7 144.99-2.7 148.59-3.2L148.59-3.2ZM157.89-25L161.14-25.25 161.14 0 157.89 0 157.89-25ZM159.39-31.7Q158.39-31.7 157.86-32.35 157.34-33 157.34-34 157.34-35 157.91-35.63 158.49-36.25 159.49-36.25 160.49-36.25 161.11-35.63 161.74-35 161.74-33.9 161.74-32.8 161.06-32.25 160.39-31.7 159.39-31.7ZM183.63-16.4L183.38-21.65Q181.33-22.3 179.18-22.3L179.18-22.3Q174.83-22.3 172.21-19.5 169.58-16.7 169.58-11.6L169.58-11.6Q169.58-2.7 177.83-2.7L177.83-2.7Q181.13-2.7 184.63-3.8L184.63-3.8Q185.33-4 185.48-4.1L185.48-4.1 186.28-1.4Q184.53-0.35 179.93 0.1L179.93 0.1Q178.63 0.2 177.18 0.2L177.18 0.2Q172.93 0.2 170.18-1.9L170.18-1.9Q166.33-4.8 166.33-11.45 166.33-18.1 169.91-21.68 173.48-25.25 179.13-25.25L179.13-25.25Q180.93-25.25 182.96-24.78 184.98-24.3 186.08-23.3L186.08-23.3 186.08-16.75 183.63-16.4ZM191.48-19.9L190.58-22.3Q196.03-25 200.13-25.15L200.13-25.15Q203.38-25.15 205.16-24.33 206.93-23.5 208.03-22.03 209.13-20.55 209.13-17.9L209.13-17.9 209.13 0 205.88 0 205.88-1.9Q199.03 0.2 197.08 0.2L197.08 0.2Q196.98 0.2 196.93 0.2L196.93 0.2Q192.43 0.2 190.78-2.55L190.78-2.55Q190.18-3.55 190.11-4.5 190.03-5.45 190.03-6.1L190.03-6.1Q190.03-7.9 191.43-9.33 192.83-10.75 194.78-11.25L194.78-11.25Q198.08-12.1 205.88-12.75L205.88-12.75 205.88-16.8Q205.88-22.25 200.18-22.25L200.18-22.25Q196.18-22.25 191.48-19.9L191.48-19.9ZM193.08-5.7L193.08-5.7Q193.08-2.1 198.03-2.1L198.03-2.1Q201.98-2.1 205.88-3.8L205.88-3.8 205.88-10.95Q198.08-9.85 196.23-9.25L196.23-9.25Q193.08-8.25 193.08-5.7ZM217.88 0L214.63 0 214.63-37.25 217.88-37.5 217.88 0ZM242.22 0L238.82 0 238.82-35 242.22-35 242.22-18.3 254.27-35 258.17-35 245.92-18.55 260.57 0 256.67 0 242.22-18.3 242.22 0ZM267.07-25.25L267.07-22.25Q270.82-25 274.17-25.15L274.17-25.15Q277.22-25.15 278.87-24.4 280.52-23.65 281.59-22.28 282.67-20.9 282.67-18.4L282.67-18.4 282.67 0 279.42 0 279.42-17.55Q279.42-19.4 278.62-20.4L278.62-20.4Q277.02-22.25 273.72-22.25L273.72-22.25Q270.57-22.1 267.07-20.2L267.07-20.2 267.07 0 263.82 0 263.82-25 267.07-25.25ZM288.72-6.4L288.72-6.4Q287.82-8.8 287.82-12L287.82-12Q287.82-18.15 291.27-21.68 294.72-25.2 299.92-25.2L299.92-25.2Q308.07-25.2 310.62-18.6L310.62-18.6Q311.57-16.2 311.57-13L311.57-13Q311.57-6.85 308.12-3.33 304.67 0.2 299.47 0.2L299.47 0.2Q291.32 0.2 288.72-6.4ZM291.07-12.35Q291.07-7.75 293.44-5.23 295.82-2.7 299.57-2.7 303.32-2.7 305.82-5.38 308.32-8.05 308.32-12.65 308.32-17.25 305.97-19.78 303.62-22.3 299.84-22.3 296.07-22.3 293.57-19.63 291.07-16.95 291.07-12.35ZM336.97 0L331.06-20.1 324.37 0 321.37 0 313.12-25 316.76-25.25 323.12-4.1 329.62-25 332.76-25.25 338.37-4.05 345.72-25 349.56-25.25 339.97 0 336.97 0ZM355.86 0L352.61 0 352.61-37.25 355.86-37.5 355.86 0ZM362.96-12.3L362.96-11.5Q362.96-2.7 371.36-2.7L371.36-2.7Q374.91-2.7 377.86-3.65L377.86-3.65Q378.61-3.9 378.91-4.05L378.91-4.05 379.66-1.4Q377.91-0.35 373.31 0.1L373.31 0.1Q372.01 0.2 370.56 0.2L370.56 0.2Q366.36 0.2 363.56-1.9L363.56-1.9Q359.71-4.75 359.71-11.4 359.71-18.05 363.19-21.63 366.66-25.2 371.61-25.2 376.56-25.2 379.06-22L379.06-22Q380.96-19.45 380.96-15.25L380.96-15.25Q380.96-14.25 380.86-13.15L380.86-13.15 363.01-13.15Q362.96-12.75 362.96-12.3L362.96-12.3ZM371.81-22.1L371.81-22.1Q368.71-22.1 366.51-20.23 364.31-18.35 363.46-15.4L363.46-15.4 378.01-15.4Q377.76-20.95 373.71-21.85L373.71-21.85Q372.81-22.1 371.81-22.1ZM397.56-25.25L397.56-25.25Q400.51-25.25 403.16-23.5L403.16-23.5 403.16-37.25 406.41-37.5 406.41-1.15 406.16-1.15Q404.61-0.5 400.98-0.15 397.36 0.2 395.96 0.2L395.96 0.2Q391.76 0.2 389.01-1.9L389.01-1.9Q385.16-4.8 385.16-11.45 385.16-18.1 388.73-21.68 392.31-25.25 397.56-25.25ZM403.16-3.2L403.16-21.35Q400.66-22.3 398.26-22.3L398.26-22.3Q393.66-22.3 391.03-19.5 388.41-16.7 388.41-11.55 388.41-6.4 391.26-4.3L391.26-4.3Q393.31-2.7 396.43-2.7 399.56-2.7 403.16-3.2L403.16-3.2ZM413.66-9.65L413.66-9.65Q409.95-11.5 409.95-16.6L409.95-16.6Q409.95-20.8 412.86-23 415.75-25.2 420.25-25.2L420.25-25.2Q421.45-25.2 423.2-24.95L423.2-24.95 432.61-25.2 432.5-23.3 427.06-23.3Q429.81-21.25 429.81-17.13 429.81-13 427.06-10.78 424.31-8.55 419.95-8.55L419.95-8.55Q417.16-8.55 415.31-9.05L415.31-9.05Q414.36-8.15 414.36-6.95L414.36-6.95Q414.36-5.25 416.23-4.5 418.11-3.75 420.66-3.4L420.66-3.4Q426.31-2.65 428.81-1.3L428.81-1.3Q432.41 0.7 432.41 4.85 432.41 9 428.45 11L428.45 11Q425.45 12.5 421.2 12.5 416.95 12.5 414.66 11.85L414.66 11.85Q408.61 10.1 408.61 5.35 408.61 0.6 413.95-2.7L413.95-2.7Q411.86-4.25 411.86-6.3 411.86-8.35 413.66-9.65ZM429.16 4.8L429.16 4.8Q429.16 1.55 424.86 0.3L424.86 0.3Q423.66-0.05 420.56-0.55 417.45-1.05 415.7-1.75L415.7-1.75Q411.86 1.45 411.86 4.45L411.86 4.45Q411.86 5.75 412.25 6.6 412.66 7.45 413.66 8.1L413.66 8.1Q415.86 9.6 420.36 9.6L420.36 9.6Q426.25 9.6 428.36 7.1L428.36 7.1Q429.16 6.15 429.16 4.8ZM426.41-17.25L426.41-17.25Q426.41-22.55 420.11-22.55L420.11-22.55Q417.11-22.55 415.16-21.18 413.2-19.8 413.2-16.98 413.2-14.15 414.61-12.68 416-11.2 419.33-11.2 422.66-11.2 424.53-12.8 426.41-14.4 426.41-17.25ZM437.95-12.3L437.95-11.5Q437.95-2.7 446.35-2.7L446.35-2.7Q449.9-2.7 452.85-3.65L452.85-3.65Q453.6-3.9 453.9-4.05L453.9-4.05 454.65-1.4Q452.9-0.35 448.3 0.1L448.3 0.1Q447 0.2 445.55 0.2L445.55 0.2Q441.35 0.2 438.55-1.9L438.55-1.9Q434.7-4.75 434.7-11.4 434.7-18.05 438.18-21.63 441.65-25.2 446.6-25.2 451.55-25.2 454.05-22L454.05-22Q455.95-19.45 455.95-15.25L455.95-15.25Q455.95-14.25 455.85-13.15L455.85-13.15 438-13.15Q437.95-12.75 437.95-12.3L437.95-12.3ZM446.8-22.1L446.8-22.1Q443.7-22.1 441.5-20.23 439.3-18.35 438.45-15.4L438.45-15.4 453-15.4Q452.75-20.95 448.7-21.85L448.7-21.85Q447.8-22.1 446.8-22.1ZM500.4-32.35L499.1-30.1Q497.8-31.4 494.4-32.05L494.4-32.05Q493.15-32.3 491.15-32.3 489.15-32.3 486.92-31.35 484.7-30.4 483-28.4L483-28.4Q479.35-24 479.35-16 479.35-8 483-4.8L483-4.8Q485.5-2.55 489.62-2.55 493.75-2.55 497.55-3.6L497.55-3.6 497.8-15.5 500.55-15.5 500.55-2Q498.35-0.6 492.6 0L492.6 0Q491 0.2 489.22 0.2 487.45 0.2 485.05-0.38 482.65-0.95 480.6-2.7L480.6-2.7Q475.95-6.65 475.95-15.85 475.95-25.05 480.35-30.08 484.75-35.1 491.7-35.1L491.7-35.1 493.3-35Q496.45-34.7 498.12-33.85 499.8-33 500.4-32.35L500.4-32.35ZM521-24.5L519.7-21.5Q518.89-21.95 518-21.95 517.1-21.95 517-21.9L517-21.9Q515.1-21.9 513.17-20.53 511.25-19.15 509.9-17.45L509.9-17.45 509.9 0 506.65 0 506.65-25 509.9-25.25 509.9-19.65Q511.75-22 513.05-22.95L513.05-22.95Q515.45-24.75 517.64-24.85L517.64-24.85Q517.95-24.9 518.75-24.9 519.55-24.9 521-24.5L521-24.5ZM524.19-19.9L523.29-22.3Q528.74-25 532.84-25.15L532.84-25.15Q536.09-25.15 537.87-24.33 539.64-23.5 540.74-22.03 541.84-20.55 541.84-17.9L541.84-17.9 541.84 0 538.59 0 538.59-1.9Q531.74 0.2 529.79 0.2L529.79 0.2Q529.69 0.2 529.64 0.2L529.64 0.2Q525.14 0.2 523.49-2.55L523.49-2.55Q522.89-3.55 522.82-4.5 522.74-5.45 522.74-6.1L522.74-6.1Q522.74-7.9 524.14-9.33 525.54-10.75 527.49-11.25L527.49-11.25Q530.79-12.1 538.59-12.75L538.59-12.75 538.59-16.8Q538.59-22.25 532.89-22.25L532.89-22.25Q528.89-22.25 524.19-19.9L524.19-19.9ZM525.79-5.7L525.79-5.7Q525.79-2.1 530.74-2.1L530.74-2.1Q534.69-2.1 538.59-3.8L538.59-3.8 538.59-10.95Q530.79-9.85 528.94-9.25L528.94-9.25Q525.79-8.25 525.79-5.7ZM563.64-3.5Q561.99-1.85 559.96-1.03 557.94-0.2 556.49-0.1 555.04 0 553.64 0 552.24 0 550.59-0.25L550.59-0.25 550.59 12.25 547.34 12.5 547.34-23.7Q548.44-24.05 550.71-24.75 552.99-25.45 555.56-25.45 558.14-25.45 560.01-25.03 561.89-24.6 563.49-23.4L563.49-23.4Q567.24-20.5 567.24-13.8 567.24-7.1 563.64-3.5L563.64-3.5ZM550.59-21.7L550.59-2.8Q552.09-2.45 553.79-2.45L553.79-2.45Q558.69-2.45 561.34-5.35 563.99-8.25 563.99-13.5 563.99-18.75 561.29-21L561.29-21Q559.39-22.55 556.41-22.55 553.44-22.55 550.59-21.7L550.59-21.7ZM574.54-37.5L574.54-22.15Q578.49-25 582.14-25.15L582.14-25.15Q585.24-25.15 586.89-24.4 588.54-23.65 589.59-22.28 590.64-20.9 590.64-18.4L590.64-18.4 590.64 0 587.39 0 587.39-17.55Q587.39-19.4 586.59-20.4L586.59-20.4Q584.99-22.25 581.69-22.25L581.69-22.25Q578.44-22.1 574.54-20.15L574.54-20.15 574.54 0 571.29 0 571.29-37.25 574.54-37.5ZM626.13-20.1L626.13-20.1Q631.68-18.05 631.68-10.85L631.68-10.85Q631.68-7.2 630.86-5.2 630.03-3.2 628.48-2.05L628.48-2.05Q625.63 0 619.58 0L619.58 0 611.33 0 611.33-35 618.83-35Q626.73-35 628.83-31L628.83-31Q629.58-29.6 629.58-27.6 629.58-25.6 628.56-23.5 627.53-21.4 626.13-20.1ZM620.58-18.15L614.73-18.15 614.73-2.75 619.33-2.75Q623.98-2.75 625.88-4L625.88-4Q628.28-5.55 628.28-10.15L628.28-10.15Q628.28-16.4 623.88-17.7L623.88-17.7Q622.43-18.15 620.58-18.15L620.58-18.15ZM623.73-20.7L623.73-20.7Q626.18-23.9 626.18-27 626.18-30.1 624.23-31.18 622.28-32.25 618.58-32.25L618.58-32.25 614.73-32.25 614.73-20.9 620.83-20.9Q622.33-20.9 623.73-20.7ZM638.68-12.3L638.68-11.5Q638.68-2.7 647.08-2.7L647.08-2.7Q650.63-2.7 653.58-3.65L653.58-3.65Q654.33-3.9 654.63-4.05L654.63-4.05 655.38-1.4Q653.63-0.35 649.03 0.1L649.03 0.1Q647.73 0.2 646.28 0.2L646.28 0.2Q642.08 0.2 639.28-1.9L639.28-1.9Q635.43-4.75 635.43-11.4 635.43-18.05 638.9-21.63 642.38-25.2 647.33-25.2 652.28-25.2 654.78-22L654.78-22Q656.68-19.45 656.68-15.25L656.68-15.25Q656.68-14.25 656.58-13.15L656.58-13.15 638.73-13.15Q638.68-12.75 638.68-12.3L638.68-12.3ZM647.53-22.1L647.53-22.1Q644.43-22.1 642.23-20.23 640.03-18.35 639.18-15.4L639.18-15.4 653.73-15.4Q653.48-20.95 649.43-21.85L649.43-21.85Q648.53-22.1 647.53-22.1ZM664.23-25.25L664.23-22.25Q667.98-25 671.33-25.15L671.33-25.15Q674.38-25.15 676.03-24.4 677.68-23.65 678.75-22.28 679.83-20.9 679.83-18.4L679.83-18.4 679.83 0 676.58 0 676.58-17.55Q676.58-19.4 675.78-20.4L675.78-20.4Q674.18-22.25 670.88-22.25L670.88-22.25Q667.73-22.1 664.23-20.2L664.23-20.2 664.23 0 660.98 0 660.98-25 664.23-25.25ZM702.62-16.4L702.37-21.65Q700.32-22.3 698.17-22.3L698.17-22.3Q693.82-22.3 691.2-19.5 688.57-16.7 688.57-11.6L688.57-11.6Q688.57-2.7 696.82-2.7L696.82-2.7Q700.12-2.7 703.62-3.8L703.62-3.8Q704.32-4 704.47-4.1L704.47-4.1 705.27-1.4Q703.52-0.35 698.92 0.1L698.92 0.1Q697.62 0.2 696.17 0.2L696.17 0.2Q691.92 0.2 689.17-1.9L689.17-1.9Q685.32-4.8 685.32-11.45 685.32-18.1 688.9-21.68 692.47-25.25 698.12-25.25L698.12-25.25Q699.92-25.25 701.95-24.78 703.97-24.3 705.07-23.3L705.07-23.3 705.07-16.75 702.62-16.4ZM713.52-37.5L713.52-22.15Q717.47-25 721.12-25.15L721.12-25.15Q724.22-25.15 725.87-24.4 727.52-23.65 728.57-22.28 729.62-20.9 729.62-18.4L729.62-18.4 729.62 0 726.37 0 726.37-17.55Q726.37-19.4 725.57-20.4L725.57-20.4Q723.97-22.25 720.67-22.25L720.67-22.25Q717.42-22.1 713.52-20.15L713.52-20.15 713.52 0 710.27 0 710.27-37.25 713.52-37.5ZM743.92-22.25L743.92-22.25Q741.12-22.1 737.87-20.4L737.87-20.4 737.87 0 734.62 0 734.62-25 737.87-25.25 737.87-22.45Q741.22-25 744.37-25.15L744.37-25.15Q749.67-25.15 751.67-22.5L751.67-22.5Q755.47-25 759.02-25.15L759.02-25.15Q762.07-25.15 763.72-24.4 765.37-23.65 766.44-22.28 767.52-20.9 767.52-18.4L767.52-18.4 767.52 0 764.27 0 764.27-17.55Q764.27-19.4 763.42-20.4L763.42-20.4Q761.87-22.25 759.02-22.25L759.02-22.25Q756.02-22.25 752.62-20.45L752.62-20.45Q752.87-19.45 752.87-18.4L752.87-18.4 752.87 0 749.62 0 749.62-17.55Q749.62-19.4 748.82-20.4L748.82-20.4Q747.22-22.25 743.92-22.25ZM774.47-19.9L773.57-22.3Q779.02-25 783.12-25.15L783.12-25.15Q786.37-25.15 788.14-24.33 789.92-23.5 791.02-22.03 792.12-20.55 792.12-17.9L792.12-17.9 792.12 0 788.87 0 788.87-1.9Q782.02 0.2 780.07 0.2L780.07 0.2Q779.97 0.2 779.92 0.2L779.92 0.2Q775.42 0.2 773.77-2.55L773.77-2.55Q773.17-3.55 773.09-4.5 773.02-5.45 773.02-6.1L773.02-6.1Q773.02-7.9 774.42-9.33 775.82-10.75 777.77-11.25L777.77-11.25Q781.07-12.1 788.87-12.75L788.87-12.75 788.87-16.8Q788.87-22.25 783.17-22.25L783.17-22.25Q779.17-22.25 774.47-19.9L774.47-19.9ZM776.07-5.7L776.07-5.7Q776.07-2.1 781.02-2.1L781.02-2.1Q784.97-2.1 788.87-3.8L788.87-3.8 788.87-10.95Q781.07-9.85 779.22-9.25L779.22-9.25Q776.07-8.25 776.07-5.7ZM811.46-24.5L810.16-21.5Q809.36-21.95 808.46-21.95 807.56-21.95 807.46-21.9L807.46-21.9Q805.56-21.9 803.64-20.53 801.71-19.15 800.36-17.45L800.36-17.45 800.36 0 797.11 0 797.11-25 800.36-25.25 800.36-19.65Q802.21-22 803.51-22.95L803.51-22.95Q805.91-24.75 808.11-24.85L808.11-24.85Q808.41-24.9 809.21-24.9 810.01-24.9 811.46-24.5L811.46-24.5ZM817.71-37.5L817.71 0 814.46 0 814.46-37.25 817.71-37.5ZM817.71-13.3L827.76-25 831.66-25 820.96-13.3 832.66 0 829.01 0.25 817.71-13.3Z" opacity="1" transform="matrix(1,0,0,1,0,0)" fill="#4b91f1" class="slogan-text-1" data-fill-palette-color="secondary" id="text-1"></path></svg></g></svg></g></svg></g></svg></g><g transform="matrix(1,0,0,1,36.70218463782113,0)"><svg viewBox="0 0 118.59563072435775 118.59563072435775" height="118.59563072435775" width="118.59563072435775"><g><svg xmlns="http://www.w3.org/2000/svg" xmlns:xlink="http://www.w3.org/1999/xlink" version="1.1" x="0" y="0" viewBox="3.3759992122650146 3.376000165939331 57.624000549316406 57.624000549316406" style="enable-background:new 0 0 64 64;" xml:space="preserve" height="118.59563072435775" width="118.59563072435775" class="icon-icon-0" data-fill-palette-color="accent" id="icon-0"><g fill="#2ecc40" data-fill-palette-color="accent"><path d="M36.096 27.95c2.199-0.104 4.128-0.287 5.85-0.591l-5.272-5.272C36.375 23.811 36.197 25.747 36.096 27.95z" fill="#2ecc40" data-fill-palette-color="accent"></path><path d="M47.997 25.411l-9.393-9.393c-0.591 1.169-1.056 2.404-1.419 3.753l7.072 7.072C45.6 26.476 46.83 26.006 47.997 25.411z" fill="#2ecc40" data-fill-palette-color="accent"></path><path d="M39.64 14.226l10.141 10.141c0.981-0.644 1.941-1.387 2.91-2.262L41.896 11.31C41.023 12.281 40.282 13.242 39.64 14.226z" fill="#2ecc40" data-fill-palette-color="accent"></path><path d="M27.904 36.05c-2.199 0.104-4.128 0.287-5.85 0.591l5.272 5.272C27.625 40.189 27.803 38.253 27.904 36.05z" fill="#2ecc40" data-fill-palette-color="accent"></path><path d="M36 32c0 0.685-0.011 1.347-0.026 2h3.141c0.376-1.916 1.75-3 3.917-3 1.451 0 2.596 0.692 3.515 1.781 4.493-1.494 8.455-4.463 13.448-10.038l0.629-0.704-2.584-2.584-0.565 0.632c-6.422 7.184-11.168 9.402-21.452 9.867C36.008 30.616 36 31.293 36 32z" fill="#2ecc40" data-fill-palette-color="accent"></path><path d="M28 32c0-0.669 0.01-1.316 0.025-1.953-10.993 0.509-16.945 3.311-24.02 11.21l-0.629 0.704 2.584 2.584 0.565-0.632c6.422-7.184 11.168-9.402 21.452-9.867C27.992 33.384 28 32.707 28 32z" fill="#2ecc40" data-fill-palette-color="accent"></path><path d="M43.419 39.311l3.104-2.328c-0.192-0.552-0.404-1.062-0.634-1.524l-3.403 2.552c0.015 0.021 0.03 0.041 0.045 0.062C42.815 38.458 43.117 38.869 43.419 39.311z" fill="#2ecc40" data-fill-palette-color="accent"></path><path d="M41 35.12c0 0.393 0.142 0.796 0.372 1.226l3.383-2.537C44.244 33.302 43.674 33 43.033 33 41.57 33 41 33.595 41 35.12z" fill="#2ecc40" data-fill-palette-color="accent"></path><path d="M47 44c0.278 0 0.588 0.007 0.916 0.017-0.159-1.684-0.425-3.407-0.801-4.978L44.46 41.03c0.429 0.811 0.81 1.725 1.094 2.772C46.076 43.932 46.545 44 47 44z" fill="#2ecc40" data-fill-palette-color="accent"></path><path d="M16.003 38.589l9.393 9.393c0.591-1.169 1.056-2.404 1.419-3.753l-7.072-7.072C18.4 37.524 17.17 37.994 16.003 38.589z" fill="#2ecc40" data-fill-palette-color="accent"></path><path d="M47.553 60.107c0.59 0.601 1.397 0.893 2.47 0.893 1.106 0 1.63-0.933 1.846-1.828l-4.556 0.651C47.39 59.922 47.468 60.02 47.553 60.107z" fill="#2ecc40" data-fill-palette-color="accent"></path><path d="M46.09 55.855c0.075 0.749 0.189 1.446 0.356 2.071l5.441-0.777c-0.141-0.681-0.404-1.349-0.74-2.016L46.09 55.855z" fill="#2ecc40" data-fill-palette-color="accent"></path><path d="M24.36 49.774L14.219 39.633c-0.981 0.644-1.941 1.387-2.91 2.262L22.104 52.69C22.977 51.719 23.718 50.758 24.36 49.774z" fill="#2ecc40" data-fill-palette-color="accent"></path><path d="M49.34 46.087C48.44 46.03 47.628 46 47 46c-0.642 0-1.309-0.092-2.041-0.282-1.266-0.356-2.415-0.973-3.523-1.603l-1.123 3.931c1.302 0.034 2.678 0.009 4.04-0.016l1.123-0.02C45.987 48 46.494 48 47 48c1.019 0 2.016 0.105 2.964 0.313 1.469 0.32 2.677 0.854 3.712 1.452l2.007-2.675C53.721 46.565 51.463 46.236 49.34 46.087z" fill="#2ecc40" data-fill-palette-color="accent"></path><path d="M57.688 47.748l-2.339 3.119c0.294 0.214 0.578 0.426 0.846 0.628 0.15 0.114 0.295 0.223 0.437 0.329l2.52-3.36C58.721 48.204 58.23 47.965 57.688 47.748z" fill="#2ecc40" data-fill-palette-color="accent"></path><path d="M60.636 49.817l-2.291 3.054C58.57 52.953 58.787 53 59 53c1.439 0 2-0.561 2-2C61 50.575 60.865 50.184 60.636 49.817z" fill="#2ecc40" data-fill-palette-color="accent"></path><path d="M48.511 50.101C48.02 50.04 47.521 50 47 50c-0.337-0.027-0.676-0.018-1.017-0.005-0.023 1.3-0.046 2.613-0.012 3.856l4.124-0.589C49.503 52.256 48.913 51.217 48.511 50.101z" fill="#2ecc40" data-fill-palette-color="accent"></path><path d="M36.161 47.575c0.636 0.165 1.345 0.277 2.106 0.351l1.375-4.813c-0.654-0.345-1.305-0.64-1.966-0.841L36.161 47.575z" fill="#2ecc40" data-fill-palette-color="accent"></path><path d="M33.532 40.486c0.212-1.672 0.351-3.494 0.419-5.569C33.98 33.979 34 33.009 34 32c0-1.085 0.01-2.118 0.051-3.092 0.368-10.978 2.488-15.79 9.863-22.384l0.631-0.565-2.583-2.583-0.706 0.63c-8.099 7.254-10.823 13.348-11.207 25.077C30.02 30.021 30 30.991 30 32c0 1.085-0.01 2.118-0.051 3.092-0.368 10.978-2.488 15.79-9.863 22.384l-0.631 0.565 2.583 2.583 0.706-0.63c4.85-4.345 7.637-8.192 9.243-12.734C31.342 46.376 31 45.29 31 44 31 42.277 32.085 41.097 33.532 40.486z" fill="#2ecc40" data-fill-palette-color="accent"></path><path d="M33 44c0 1.055 0.29 1.853 0.886 2.438 0.127 0.124 0.27 0.237 0.422 0.344l1.361-4.765C34.595 42.096 33 42.571 33 44z" fill="#2ecc40" data-fill-palette-color="accent"></path></g></svg></g></svg></g><g></g></svg></g></svg></g></svg></g></svg></g><defs></defs><mask id="b6eef2a3-aec9-47ef-b354-a5856df34b0b"><g id="SvgjsG1548"><svg viewBox="0 0 320 360" height="360" width="320"><g><svg></svg></g><g><svg viewBox="0 0 320 360" height="360" width="320"><g><path xmlns="http://www.w3.org/2000/svg" d="M20.961 227.22l3.726 4.658-1.863-6.056c-0.466-2.795-3.726 0.466-1.863 1.398M25.153 224.425c1.397 2.329 2.795 4.658 2.795 6.987 0 3.261 2.795 4.658 5.123 5.589-3.261-3.726-5.124-13.974-7.918-12.576M204.017 26.929c7.918 0 15.371-0.932 23.756 0.931 20.495 5.124 37.729 15.371 49.374 29.811l32.606 52.169c1.397 13.042 4.192 27.482 3.726 43.319 3.261 0 2.795-4.658 6.521-5.59-3.726 9.316-5.59 20.961-6.521 34.469-2.329-7.453 0-18.632 0.466-24.687-3.261 5.124-5.124 1.397-5.124-0.932 0.466-3.726-1.397-3.261-2.795-4.658-5.124-4.658-8.384-9.782-12.11-17.7 2.329-6.055 2.795-14.905-4.658-19.563-2.329-1.397-5.124-3.726-6.521-7.453-1.863-5.124-5.124-11.179-4.193-19.097 0.466-2.329-6.987 5.124-11.179 1.863-18.166-12.576-36.332-27.016-58.224-39.127-11.645 0-20.029-4.192-24.221-9.316-3.726-4.658-0.932-10.713 4.658-11.179 3.261 0 6.987-0.932 9.782 0.932 0.466-1.863 2.329-4.192 4.657-4.192M157.904 16.215l0.932 0.466c4.658 0.932 6.987 7.453 12.11 5.124 0 3.261 0.466 6.521-0.466 8.85-1.397 3.726-5.59 3.726-8.85 3.726-31.208-1.863-49.374 11.179-68.471 22.358-5.124 3.261-10.713 5.59-14.906 9.782-20.029 18.632-41.921 35.866-47.045 70.335l-4.192 38.195c-0.466 4.192-5.124 8.384-4.192 13.508l3.26 22.824c-3.261-3.261-5.124 0.932-4.192 2.795 0.466 1.397 2.329 6.055 5.124 1.863 3.726 6.987 7.453 20.495 12.576 26.55 15.837 18.632 36.332 35.4 53.101 52.169 4.192-0.932 7.453-0.932 8.384-3.727 1.397 2.795-1.397 5.59-3.726 6.056 7.453 4.658 15.837 8.85 27.016 9.781 14.44 0.932 27.948 3.261 40.524 6.522 6.521-1.863 13.042-2.795 20.029-3.261 2.329 0 3.726-3.726 6.521-4.658l0.466-4.658c2.795 4.192 2.329-1.397 0.466-4.192 3.261 2.795 4.192 5.124 5.589 6.987 0-1.397 3.726-6.521 3.727-0.466l0.931-6.055c1.397-0.932 1.863 5.124 3.261 0.931 1.397-4.192 4.192-0.932 6.987-2.329-0.932 1.863-0.466 5.59 2.794 3.261l3.727-3.261c2.329 5.59 6.055 3.261 7.918 2.329 20.495-13.042 40.99-28.413 60.553-43.784l-0.466 6.055 2.329-7.453c2.329 2.329 4.192 0.466 5.124-0.931 2.795-4.658 6.521-9.316 12.577-13.508-7.453 20.029-16.303 35.866-27.482 48.908l-4.658 5.59c0 3.261-0.932 7.453-4.658 7.918-1.863 0.466-5.59-0.932-8.384 1.863-1.397 1.863 3.261 5.59-0.466 2.795-3.261-2.329-6.521 0-10.248 0.932-2.795 0.932 1.863 3.726 2.795 5.589 0.932 1.863 1.863 3.726 1.398 6.056l-5.124-5.59c-6.055 3.261-9.782 9.316-14.906 13.974-2.329 1.863-1.397 5.124-1.397 7.918-3.261 0-6.987-0.932-8.85 0.932-1.397 1.863-0.932 4.658-0.932 7.453-4.658-0.466-5.124-7.453-9.315-6.056-4.192 0.932-8.85 1.397-12.577 3.727 2.795 5.59-4.658 2.329-3.726 3.26-6.987-4.192-13.042-7.453-20.495-4.658-15.837-5.124-35.4-2.795-49.84-0.931 0-2.329 0.466-4.658-0.466-5.124-0.932 2.329-3.726 1.397-3.26 1.397-8.85-6.055-17.7-9.782-27.016-14.905-8.384 0.932-16.303-3.261-18.632-5.59-6.521-6.055-13.974-2.795-20.029-4.192-13.042-3.261-17.7-16.769-19.098-26.084-0.932-4.658-4.658-6.521-6.055-6.056-6.055-19.563-15.371-37.263-22.824-55.429-1.863-4.658-1.397-9.316-1.397-14.44 2.329 0.932 4.658 0.466 4.192-2.794-2.329-15.371-7.918-27.016-13.974-38.195 3.261-15.837 3.726-34.469 11.179-48.443 6.521-12.576 18.632-19.098 27.016-29.811 2.795-3.726 2.795-8.85 5.59-12.11 9.316-9.316 18.632-19.098 28.879-27.482 4.658-3.726 10.247 0 17.234-1.397 2.329-8.384 11.645-15.837 20.495-13.508 3.726 0.932 11.179-8.85 13.508-9.782 3.726-1.397 1.863 3.726 1.863 6.987 8.85-6.987 20.961-10.713 32.14-14.906" fill="white" fill-rule="nonzero" stroke="none" stroke-width="1" stroke-linecap="butt" stroke-linejoin="miter" stroke-miterlimit="10" stroke-dasharray="" stroke-dashoffset="0" font-family="none" font-weight="none" font-size="none" text-anchor="none" style="mix-blend-mode: normal"></path></g><g transform="matrix(1,0,0,1,64,97.25394128758204)"><svg viewBox="0 0 192 165.49211742483593" height="165.49211742483593" width="192"><g><svg viewBox="0 0 192 165.49211742483593" height="165.49211742483593" width="192"><g><svg viewBox="0 0 192 165.49211742483593" height="165.49211742483593" width="192"><g transform="matrix(1,0,0,1,0,122.58487041891779)"><svg viewBox="0 0 192 42.90724700591814" height="42.90724700591814" width="192"><g id="SvgjsG1547"><svg viewBox="0 0 192 42.90724700591814" height="42.90724700591814" width="192" id="SvgjsSvg1546"><g><svg viewBox="0 0 192 27.33779018228693" height="27.33779018228693" width="192"><g transform="matrix(1,0,0,1,0,0)"><svg width="192" viewBox="0.9500000476837158 -34.25 243.6865997314453 34.70000076293945" height="27.33779018228693" data-palette-color="#4b91f1"></svg></g></svg></g><g transform="matrix(1,0,0,1,0,31.327029876846968)"><svg viewBox="0 0 192 11.58021712907117" height="11.58021712907117" width="192"><g transform="matrix(1,0,0,1,0,0)"><svg width="192" viewBox="3.75 -37.5 828.9099731445312 50" height="11.58021712907117" data-palette-color="#4b91f1"></svg></g></svg></g></svg></g></svg></g><g transform="matrix(1,0,0,1,36.70218463782113,0)"><svg viewBox="0 0 118.59563072435775 118.59563072435775" height="118.59563072435775" width="118.59563072435775"><g><svg xmlns="http://www.w3.org/2000/svg" xmlns:xlink="http://www.w3.org/1999/xlink" version="1.1" x="0" y="0" viewBox="3.3759992122650146 3.376000165939331 57.624000549316406 57.624000549316406" style="enable-background:new 0 0 64 64;" xml:space="preserve" height="118.59563072435775" width="118.59563072435775" class="icon-icon-0" data-fill-palette-color="accent" id="SvgjsSvg1543"></svg></g></svg></g><g></g></svg></g></svg></g></svg></g></svg></g><defs><mask></mask></defs></svg></g></mask><linearGradient x1="0" x2="1" y1="0.578" y2="0.595" id="61707948-d8ae-426f-b99a-4ecc6a072040"><stop stop-color="#6ee2f5" offset="0"></stop><stop stop-color="#6454f0" offset="1"></stop></linearGradient></svg><rect width="320" height="360" fill="none" stroke="none" visibility="hidden"></rect></g></svg></g></svg>